SplineFontDB: 3.0
FontName: Amatic
FullName: Amatic
FamilyName: Amatic
Weight: Normal
Copyright: Copyright (c) 2011 by vernon adams. All rights reserved. with\nReserved Font Names "Amatic" and "Amatic Regular". This\nFont Software is licensed under the SIL Open Font License, Version\n1.1. This license is available with a FAQ at:\nhttp://scripts.sil.org/OFL
Version: 001.001
ItalicAngle: 0
UnderlinePosition: -50
UnderlineWidth: 50
Ascent: 750
Descent: 250
sfntRevision: 0x00010000
LayerCount: 2
Layer: 0 0 "Back"  1
Layer: 1 0 "Fore"  0
NeedsXUIDChange: 1
XUID: [1021 14 500265001 1859714]
FSType: 0
OS2Version: 0
OS2_WeightWidthSlopeOnly: 0
OS2_UseTypoMetrics: 1
CreationTime: 1313668917
ModificationTime: 1313667470
PfmFamily: 81
TTFWeight: 400
TTFWidth: 3
LineGap: 9
VLineGap: 0
Panose: 0 0 0 0 0 0 0 0 0 0
OS2TypoAscent: 750
OS2TypoAOffset: 0
OS2TypoDescent: -250
OS2TypoDOffset: 0
OS2TypoLinegap: 0
OS2WinAscent: 1008
OS2WinAOffset: 0
OS2WinDescent: 10
OS2WinDOffset: 0
HheadAscent: 682
HheadAOffset: 0
HheadDescent: -260
HheadDOffset: 0
OS2SubXSize: 650
OS2SubYSize: 600
OS2SubXOff: 0
OS2SubYOff: 75
OS2SupXSize: 650
OS2SupYSize: 600
OS2SupXOff: 0
OS2SupYOff: 350
OS2StrikeYSize: 50
OS2StrikeYPos: 300
OS2Vendor: 'newt'
OS2CodePages: 00000001.00000000
OS2UnicodeRanges: 00000001.00000000.00000000.00000000
Lookup: 4 0 1 "'liga' Standard Ligatures in Latin lookup 0"  {"'liga' Standard Ligatures in Latin lookup 0-1"  } ['liga' ('DFLT' <'dflt' > 'latn' <'dflt' > ) ]
MarkAttachClasses: 1
DEI: 91125
LangName: 1033 "Copyright 2011 vernon adams. All rights reserved." "" "Regular" "" "Amatic Regular" "Version 1.000" "" "Please refer to the Copyright section for the font trademark attribution notices.+//8BTAAA+gAgA" "" "" "" "" "" "" "http://scripts.sil.org/OFL" "" "Amatic" "Regular" 
Encoding: ISO8859-1
Compacted: 1
UnicodeInterp: none
NameList: Adobe Glyph List
DisplaySize: -48
AntiAlias: 1
FitToEm: 1
WidthSeparation: 110
WinInfo: 0 22 12
BeginPrivate: 7

StartChar: exclam
Encoding: 33 33 2
Width: 161
Flags: W
LayerCount: 2
Fore
SplineSet
43 19 m 1
 43 32 60 50 73 50 c 0
 94 50 103 32 103 13 c 0
 103 -3 94 -12 78 -13 c 1
 74 -1 61 -17 43 19 c 1
71 161 m 2
 71 401 l 2
 71 458 73 515 73 572 c 0
 73 626 66 677 66 729 c 0
 66 743 84 756 97 756 c 0
 105 756 110 751 110 743 c 0
 110 583 89 425 89 265 c 0
 89 253 90 237 90 221 c 0
 90 199 88 176 82 162 c 1
 85 157 l 1
 72 157 l 1
 72 158 71 160 71 161 c 2
EndSplineSet
EndChar

StartChar: numbersign
Encoding: 35 35 3
Width: 386
Flags: W
LayerCount: 2
Fore
SplineSet
217 -18 m 0
 217 24 230 65 230 107 c 0
 230 170 249 231 249 294 c 1
 222 297 195 297 168 297 c 0
 156 297 144 297 133 293 c 1
 119 191 108 -28 90 -28 c 0
 85 -28 73 -25 73 -18 c 0
 73 28 79 74 84 119 c 0
 91 177 98 236 110 293 c 1
 96 293 82 289 67 289 c 0
 53 289 37 292 37 310 c 0
 37 319 53 320 71 320 c 2
 92 320 l 2
 100 320 107 320 112 321 c 1
 116 330 130 457 130 474 c 1
 119 474 108 472 96 472 c 0
 84 472 58 473 57 490 c 1
 65 499 l 1
 79 499 120 498 132 502 c 1
 140 571 155 641 155 711 c 0
 155 718 154 724 154 731 c 0
 154 741 156 753 169 753 c 1
 176 739 l 1
 176 661 158 585 158 507 c 1
 172 503 186 503 201 503 c 0
 222 503 246 502 267 510 c 1
 283 588 298 666 304 745 c 1
 308 750 313 753 319 753 c 0
 324 753 329 748 331 743 c 1
 330 665 295 593 295 515 c 1
 297 510 l 1
 334 510 l 1
 347 496 l 1
 345 491 341 480 334 480 c 0
 320 480 306 482 292 482 c 1
 280 434 277 380 277 331 c 1
 282 329 l 1
 287 329 294 330 301 330 c 0
 315 330 329 327 329 311 c 0
 329 304 318 300 313 298 c 1
 274 298 l 1
 266 194 246 90 246 -15 c 1
 235 -28 l 1
 229 -28 217 -26 217 -18 c 0
138 325 m 0
 144 324 149 323 155 323 c 0
 186 323 217 323 247 327 c 1
 255 374 265 422 265 470 c 0
 265 480 212 480 188 480 c 0
 176 480 164 479 155 474 c 1
 147 456 137 353 137 329 c 0
 137 328 138 326 138 325 c 0
EndSplineSet
EndChar

StartChar: dollar
Encoding: 36 36 4
Width: 263
Flags: W
LayerCount: 2
Fore
SplineSet
134 11 m 1
 138 14 l 1
 138 80 l 1
 135 83 l 1
 118 83 101 83 85 81 c 1
 69 92 50 110 50 131 c 0
 50 137 53 141 59 141 c 2
 61 141 l 1
 86 126 65 100 108 100 c 0
 117 100 127 101 136 104 c 1
 136 164 115 385 110 430 c 0
 108 448 43 552 43 635 c 0
 43 662 54 743 91 743 c 1
 91 757 87 771 87 786 c 0
 87 795 88 812 101 812 c 1
 109 803 l 1
 108 796 108 788 108 781 c 0
 108 762 111 744 124 744 c 0
 138 744 150 736 162 722 c 0
 166 718 187 696 187 692 c 0
 187 685 181 673 175 679 c 0
 155 699 155 722 116 726 c 1
 113 718 l 1
 113 692 116 665 116 639 c 0
 116 607 129 448 139 425 c 1
 156 379 217 279 224 197 c 1
 224 139 200 121 156 90 c 1
 156 71 160 52 160 33 c 0
 160 22 159 -9 143 -9 c 0
 136 -9 134 6 134 11 c 1
154 117 m 1
 155 115 l 1
 181 127 202 160 202 189 c 0
 202 223 163 342 137 379 c 1
 137 291 154 205 154 117 c 1
66 629 m 0
 66 581 84 527 104 483 c 0
 104 481 105 480 107 479 c 1
 105 559 93 639 89 719 c 1
 74 716 66 643 66 629 c 0
EndSplineSet
EndChar

StartChar: percent
Encoding: 37 37 5
Width: 547
Flags: W
LayerCount: 2
Fore
SplineSet
128 353 m 0
 45 353 44 520 44 576 c 2
 44 580 l 2
 44 611 62 758 115 758 c 0
 122 758 165 759 184 721 c 1
 208 680 215 612 215 566 c 1
 213 563 l 1
 213 547 215 533 215 517 c 0
 215 472 210 353 128 353 c 0
71 520 m 0
 71 499 77 379 126 379 c 0
 188 379 192 488 192 523 c 0
 192 567 184 604 184 648 c 1
 182 657 l 1
 182 696 155 731 118 731 c 0
 81 731 77 621 73 601 c 1
 73 593 69 584 69 575 c 0
 69 557 71 539 71 520 c 0
419 398 m 0
 501 398 506 279 506 234 c 0
 506 218 504 204 504 188 c 1
 506 185 l 1
 506 124 493 13 406 13 c 0
 352 13 335 144 335 171 c 2
 335 175 l 2
 335 232 336 398 419 398 c 0
362 232 m 0
 362 214 360 196 360 179 c 0
 360 170 364 161 364 153 c 1
 368 137 372 46 408 46 c 0
 487 46 480 169 480 229 c 0
 480 263 476 370 416 370 c 0
 368 370 362 254 362 232 c 0
374 735 m 0
 374 727 356 653 354 643 c 0
 318 477 279 313 241 146 c 2
 221 59 l 2
 216 38 213 -1 192 -3 c 1
 186 1 182 8 182 15 c 0
 182 63 204 131 217 189 c 0
 256 362 297 535 342 707 c 0
 344 713 351 748 359 748 c 0
 367 748 374 744 374 735 c 0
EndSplineSet
EndChar

StartChar: ampersand
Encoding: 38 38 6
Width: 460
Flags: W
LayerCount: 2
Fore
SplineSet
172 107 m 0
 98 107 45 193 45 260 c 0
 45 386 79 439 134 546 c 1
 134 593 127 639 127 686 c 2
 127 769 l 2
 127 788 134 832 159 832 c 0
 185 832 235 812 235 781 c 0
 235 761 232 741 232 721 c 0
 232 717 232 713 233 709 c 1
 218 667 205 622 184 583 c 0
 175 566 157 550 157 530 c 0
 157 475 228 202 278 187 c 1
 309 249 316 312 316 381 c 0
 316 408 301 389 292 403 c 1
 293 405 l 1
 291 411 l 1
 294 416 l 1
 313 416 387 422 402 428 c 1
 410 427 419 422 419 413 c 0
 419 402 386 397 369 397 c 0
 361 397 353 398 345 398 c 2
 339 398 l 1
 339 303 332 241 296 170 c 1
 315 148 343 130 373 130 c 0
 385 130 398 133 410 133 c 1
 421 124 l 1
 421 108 387 108 376 108 c 0
 341 108 312 128 285 148 c 1
 246 121 221 107 172 107 c 0
67 278 m 0
 67 208 97 126 179 126 c 0
 199 126 263 142 265 166 c 1
 259 176 253 181 245 189 c 0
 198 237 164 350 151 415 c 0
 145 444 146 473 137 501 c 1
 90 440 67 355 67 278 c 0
373 307 m 2
 374 307 374 307 374 306 c 2
 373 307 l 2
153 642 m 1
 151 636 151 631 151 625 c 0
 151 610 154 596 154 581 c 1
 178 603 213 713 213 747 c 0
 213 772 209 807 176 807 c 0
 166 807 150 780 150 771 c 2
 151 647 l 1
 153 642 l 1
EndSplineSet
EndChar

StartChar: parenleft
Encoding: 40 40 7
Width: 225
Flags: W
LayerCount: 2
Fore
SplineSet
46 429 m 0
 46 482 89 792 143 794 c 1
 153 786 l 1
 152 752 129 725 118 695 c 0
 88 612 73 517 73 429 c 0
 73 275 89 75 149 -68 c 0
 161 -97 182 -123 190 -154 c 1
 187 -159 181 -166 175 -166 c 0
 156 -166 149 -140 143 -126 c 0
 79 17 46 252 46 429 c 0
EndSplineSet
EndChar

StartChar: parenright
Encoding: 41 41 8
Width: 233
Flags: W
LayerCount: 2
Fore
SplineSet
189 399 m 0
 189 317 177 236 158 156 c 0
 148 113 91 -136 50 -136 c 0
 43 -136 35 -132 35 -124 c 0
 35 -115 64 -69 76 -38 c 0
 124 89 162 262 162 399 c 0
 162 494 149 605 117 695 c 0
 106 726 82 752 82 786 c 1
 92 794 l 1
 151 792 189 456 189 399 c 0
EndSplineSet
EndChar

StartChar: asterisk
Encoding: 42 42 9
Width: 442
Flags: W
LayerCount: 2
Fore
SplineSet
113 364 m 1
 113 388 184 502 192 546 c 1
 189 547 184 548 181 548 c 2
 68 548 l 2
 63 548 58 547 52 547 c 0
 43 547 41 555 41 563 c 0
 41 570 46 575 52 575 c 0
 98 575 142 574 187 574 c 1
 189 576 l 1
 179 594 116 724 116 734 c 0
 116 742 125 745 132 745 c 0
 148 745 186 607 209 592 c 1
 222 616 258 754 281 754 c 0
 288 754 297 746 297 739 c 0
 297 730 289 720 284 712 c 0
 262 669 253 620 233 575 c 1
 234 574 l 1
 254 571 274 570 294 570 c 0
 322 570 352 575 380 575 c 0
 390 575 399 565 399 556 c 0
 399 543 387 542 376 542 c 0
 337 542 301 547 262 547 c 0
 253 547 243 547 234 546 c 1
 231 544 l 1
 232 519 308 391 308 368 c 0
 308 360 301 354 294 354 c 0
 271 354 271 392 266 406 c 0
 250 444 232 483 212 520 c 1
 207 513 203 502 200 494 c 2
 161 402 l 2
 154 385 149 366 140 351 c 1
 127 349 l 1
 113 364 l 1
230 547 m 1
 229 547 229 547 229 546 c 1
 230 546 l 1
 230 547 l 1
EndSplineSet
EndChar

StartChar: plus
Encoding: 43 43 10
Width: 355
Flags: W
LayerCount: 2
Fore
SplineSet
154 188 m 2
 154 219 l 2
 154 236 156 253 156 271 c 0
 156 296 156 304 122 304 c 0
 107 304 93 299 78 299 c 0
 63 299 49 303 49 320 c 0
 49 329 50 334 60 334 c 0
 78 334 95 331 113 331 c 0
 119 331 154 331 154 339 c 0
 154 372 149 406 149 439 c 0
 149 454 153 461 169 461 c 0
 180 461 187 455 187 444 c 1
 183 434 l 1
 183 408 187 381 187 355 c 0
 187 335 197 331 215 331 c 0
 235 331 255 334 275 334 c 0
 287 334 306 332 306 316 c 0
 306 305 299 300 289 300 c 0
 269 300 249 303 228 303 c 0
 198 303 187 304 187 270 c 0
 187 236 196 218 196 190 c 0
 196 179 185 174 175 174 c 0
 168 174 154 180 154 188 c 2
EndSplineSet
EndChar

StartChar: comma
Encoding: 44 44 11
Width: 199
Flags: W
LayerCount: 2
Fore
SplineSet
49 -79 m 1
 51 -70 l 1
 71 -51 103 -28 103 3 c 1
 88 12 74 29 74 47 c 0
 74 66 95 78 112 78 c 0
 131 78 139 65 145 49 c 1
 143 46 l 1
 145 42 145 38 145 34 c 0
 145 2 101 -86 65 -87 c 1
 49 -79 l 1
EndSplineSet
EndChar

StartChar: hyphen
Encoding: 45 45 12
Width: 303
Flags: W
LayerCount: 2
Fore
SplineSet
248 361 m 0
 248 346 121 332 76 332 c 0
 67 332 55 338 55 349 c 0
 55 364 185 378 226 378 c 0
 235 378 248 371 248 361 c 0
EndSplineSet
EndChar

StartChar: period
Encoding: 46 46 13
Width: 160
Flags: W
LayerCount: 2
Fore
SplineSet
55 20 m 4
 55 33 68 47 81 47 c 4
 93 47 105 32 105 21 c 4
 105 3 93 -4 77 -4 c 4
 65 -4 55 9 55 20 c 4
EndSplineSet
EndChar

StartChar: slash
Encoding: 47 47 14
Width: 273
Flags: W
LayerCount: 2
Fore
SplineSet
234 735 m 0
 234 727 216 653 214 643 c 0
 178 477 139 313 101 146 c 2
 81 59 l 2
 76 38 73 -1 52 -3 c 1
 46 1 42 8 42 15 c 0
 42 63 64 131 77 189 c 0
 116 362 157 535 202 707 c 0
 204 713 211 748 219 748 c 0
 227 748 234 744 234 735 c 0
EndSplineSet
EndChar

StartChar: zero
Encoding: 48 48 15
Width: 296
Flags: W
LayerCount: 2
Fore
SplineSet
157 -7 m 0
 152 -7 130 3 125 6 c 0
 75 37 57 313 52 378 c 1
 56 382 l 1
 55 453 l 1
 49 461 49 488 49 506 c 0
 49 559 50 613 50 666 c 1
 71 704 50 753 121 753 c 0
 131 753 145 745 154 740 c 0
 213 704 213 639 221 578 c 0
 236 466 253 353 253 240 c 0
 253 177 248 -7 157 -7 c 0
86 374 m 0
 86 314 84 16 166 16 c 0
 225 16 229 213 229 256 c 0
 229 320 221 466 198 523 c 1
 198 566 l 1
 171 633 213 719 106 731 c 1
 73 704 72 690 72 649 c 0
 72 587 76 524 76 462 c 0
 76 432 86 404 86 374 c 0
EndSplineSet
EndChar

StartChar: one
Encoding: 49 49 16
Width: 296
Flags: W
LayerCount: 2
Fore
SplineSet
96 18 m 1
 101 28 l 1
 110 28 119 27 128 27 c 0
 147 27 153 35 153 54 c 0
 153 245 136 436 124 627 c 0
 124 638 125 649 125 661 c 0
 125 693 119 724 79 724 c 0
 71 724 64 722 56 722 c 0
 49 722 39 723 39 733 c 0
 39 747 114 747 127 747 c 0
 136 747 143 740 143 731 c 1
 145 731 l 1
 143 721 142 710 142 700 c 0
 142 637 157 574 157 511 c 0
 157 399 174 288 174 176 c 0
 174 172 173 167 172 163 c 1
 176 148 178 70 178 50 c 0
 178 45 177 40 177 35 c 1
 181 32 l 1
 196 32 211 35 226 35 c 0
 235 35 257 35 257 21 c 0
 257 9 244 7 235 7 c 0
 194 7 153 3 112 3 c 0
 103 3 96 9 96 18 c 1
EndSplineSet
EndChar

StartChar: two
Encoding: 50 50 17
Width: 279
Flags: W
LayerCount: 2
Fore
SplineSet
38 12 m 1
 67 48 73 93 92 134 c 0
 164 291 206 436 206 610 c 0
 206 652 205 754 144 754 c 1
 146 755 l 1
 101 737 119 667 95 667 c 0
 82 667 82 677 82 687 c 0
 82 716 99 774 135 774 c 0
 194 774 228 721 230 667 c 1
 228 665 l 1
 228 641 231 616 231 592 c 0
 231 487 198 301 155 205 c 0
 140 171 76 47 75 20 c 1
 83 19 l 1
 119 26 163 28 203 30 c 1
 218 14 l 1
 209 1 l 1
 160 1 112 -8 63 -8 c 0
 51 -8 38 -1 38 12 c 1
EndSplineSet
EndChar

StartChar: three
Encoding: 51 51 18
Width: 288
Flags: W
LayerCount: 2
Fore
SplineSet
95 36 m 1
 103 41 l 1
 119 40 132 26 146 18 c 1
 214 18 222 93 222 145 c 0
 222 237 220 340 154 412 c 1
 151 412 148 411 144 411 c 0
 138 411 131 412 125 415 c 1
 125 419 l 1
 120 424 l 1
 121 436 184 480 184 552 c 0
 184 593 179 728 120 728 c 0
 71 728 78 671 54 671 c 0
 46 671 38 677 37 685 c 1
 55 722 78 752 123 752 c 0
 140 752 158 741 168 728 c 1
 171 727 l 1
 205 677 211 597 211 538 c 0
 211 518 203 499 193 482 c 1
 185 476 170 445 160 434 c 1
 229 407 227 308 241 248 c 0
 249 214 249 215 249 179 c 0
 249 115 246 -1 157 -1 c 0
 136 -1 95 10 95 36 c 1
EndSplineSet
EndChar

StartChar: four
Encoding: 52 52 19
Width: 257
Flags: W
LayerCount: 2
Fore
SplineSet
147 30 m 1
 146 32 l 1
 149 44 150 56 150 68 c 0
 150 102 143 136 143 170 c 0
 143 185 145 200 145 215 c 0
 145 225 145 254 135 259 c 1
 115 259 96 253 76 253 c 0
 60 253 61 255 49 264 c 1
 49 267 l 2
 49 278 52 289 54 299 c 1
 45 319 l 1
 45 336 54 351 54 368 c 0
 54 433 64 499 64 564 c 2
 64 723 l 2
 64 731 60 740 60 748 c 0
 60 756 64 761 72 761 c 0
 80 761 90 757 90 747 c 0
 90 720 86 694 86 667 c 0
 86 656 87 644 89 633 c 1
 87 630 l 1
 88 621 89 612 89 602 c 0
 89 518 77 434 77 350 c 0
 77 340 84 331 84 321 c 0
 84 311 77 304 77 294 c 0
 77 287 77 275 87 275 c 0
 98 275 128 279 137 284 c 1
 137 356 133 428 130 500 c 0
 129 527 122 553 122 580 c 0
 122 589 134 592 141 592 c 1
 150 581 l 1
 150 534 156 487 156 440 c 0
 156 420 159 291 166 284 c 1
 178 284 190 288 203 288 c 0
 210 288 222 287 222 277 c 0
 222 251 166 281 166 243 c 0
 166 220 170 86 175 74 c 1
 174 70 174 64 174 57 c 0
 174 48 175 38 178 33 c 1
 175 21 l 1
 178 14 l 1
 178 0 l 1
 162 -12 l 1
 147 -6 l 1
 147 30 l 1
EndSplineSet
EndChar

StartChar: five
Encoding: 53 53 20
Width: 278
Flags: W
LayerCount: 2
Fore
SplineSet
104 6 m 0
 104 16 116 17 123 17 c 0
 132 17 140 9 149 9 c 0
 193 9 212 127 212 160 c 0
 212 210 206 465 139 465 c 2
 116 465 l 1
 112 462 l 2
 111 462 110 463 109 463 c 0
 102 463 93 454 87 454 c 0
 58 454 65 482 62 501 c 1
 65 518 67 535 67 552 c 0
 67 623 45 693 43 764 c 1
 53 774 l 1
 130 775 l 2
 140 775 160 775 160 761 c 1
 149 752 l 1
 128 752 l 1
 125 750 l 1
 85 755 l 1
 78 753 l 1
 74 754 l 1
 74 722 79 690 81 659 c 0
 85 603 89 547 94 491 c 1
 93 491 93 490 93 490 c 1
 93 488 161 485 179 472 c 0
 222 440 237 267 237 214 c 0
 237 140 236 30 161 -10 c 1
 156 -10 l 2
 145 -10 104 -10 104 6 c 0
74 653 m 2
 73 653 73 653 73 652 c 2
 74 653 l 2
EndSplineSet
EndChar

StartChar: six
Encoding: 54 54 21
Width: 252
Flags: W
LayerCount: 2
Fore
SplineSet
142 -14 m 0
 60 -14 72 126 64 180 c 0
 54 251 49 322 49 394 c 0
 49 461 48 766 145 766 c 0
 149 766 157 762 157 757 c 0
 157 743 132 739 123 731 c 0
 87 702 76 490 75 438 c 1
 81 442 90 446 97 446 c 0
 210 446 211 163 211 83 c 0
 211 34 203 -14 142 -14 c 0
75 370 m 0
 74 273 83 177 100 81 c 0
 105 49 103 6 150 6 c 0
 186 6 187 60 187 85 c 0
 187 142 183 424 105 424 c 1
 85 411 75 394 75 370 c 0
EndSplineSet
EndChar

StartChar: seven
Encoding: 55 55 22
Width: 220
Flags: W
LayerCount: 2
Fore
SplineSet
42 -2 m 1
 42 23 54 46 60 70 c 0
 100 241 111 418 133 592 c 0
 139 641 150 690 150 740 c 0
 150 746 120 746 115 746 c 0
 95 746 76 743 56 743 c 1
 41 753 l 1
 50 762 l 1
 85 762 121 765 156 765 c 0
 166 765 175 756 178 747 c 1
 170 726 173 703 171 681 c 0
 165 611 92 64 77 42 c 1
 78 39 78 36 78 34 c 0
 78 20 71 -12 54 -13 c 1
 42 -2 l 1
EndSplineSet
EndChar

StartChar: eight
Encoding: 56 56 23
Width: 256
Flags: W
LayerCount: 2
Fore
SplineSet
65 91 m 0
 65 183 74 279 97 369 c 0
 102 387 112 405 112 424 c 0
 112 435 93 490 89 503 c 0
 71 558 43 647 43 704 c 0
 43 741 56 786 101 786 c 2
 119 786 l 1
 132 779 147 776 154 761 c 0
 167 731 173 683 173 650 c 0
 173 597 163 544 153 492 c 0
 150 479 138 434 138 424 c 0
 138 416 148 397 151 388 c 0
 183 291 217 163 217 51 c 0
 217 43 214 35 214 27 c 0
 214 25 214 24 215 22 c 1
 196 -15 178 -38 133 -38 c 0
 80 -38 65 51 65 91 c 0
100 26 m 1
 101 9 112 -19 133 -19 c 0
 179 -19 193 19 193 58 c 0
 193 133 175 219 155 292 c 0
 146 323 141 362 128 385 c 1
 97 342 88 142 88 82 c 0
 88 64 94 46 101 29 c 1
 100 26 l 1
68 702 m 0
 68 670 99 486 120 473 c 1
 138 531 150 591 150 652 c 0
 150 675 146 764 114 764 c 0
 111 764 107 763 103 763 c 0
 99 763 94 764 91 766 c 1
 71 750 68 726 68 702 c 0
EndSplineSet
EndChar

StartChar: nine
Encoding: 57 57 24
Width: 249
Flags: W
LayerCount: 2
Fore
SplineSet
156 -13 m 1
 165 12 165 49 165 76 c 0
 165 169 170 262 170 355 c 0
 170 391 168 427 168 463 c 1
 161 461 l 1
 89 477 41 535 41 607 c 0
 41 660 54 782 126 782 c 0
 144 782 181 772 191 757 c 0
 198 746 198 616 198 597 c 0
 198 558 197 518 197 479 c 0
 197 465 190 453 190 439 c 0
 190 327 187 214 187 102 c 0
 187 77 180 53 180 28 c 0
 180 20 181 13 181 5 c 0
 181 -6 179 -23 164 -23 c 1
 156 -13 l 1
75 572 m 1
 81 509 110 514 155 487 c 1
 169 489 l 1
 173 560 174 632 174 703 c 0
 174 736 165 763 127 763 c 0
 75 763 67 652 67 615 c 0
 67 605 68 579 75 572 c 1
EndSplineSet
EndChar

StartChar: colon
Encoding: 58 58 25
Width: 168
Flags: W
LayerCount: 2
Fore
SplineSet
55 122 m 0
 55 135 68 149 81 149 c 0
 93 149 105 134 105 123 c 0
 105 105 93 98 77 98 c 0
 65 98 55 111 55 122 c 0
65 500 m 0
 65 513 78 527 91 527 c 0
 103 527 115 512 115 501 c 0
 115 483 103 476 87 476 c 0
 75 476 65 489 65 500 c 0
EndSplineSet
EndChar

StartChar: semicolon
Encoding: 59 59 26
Width: 191
Flags: W
LayerCount: 2
Fore
SplineSet
88 500 m 0
 88 513 101 527 114 527 c 0
 126 527 138 512 138 501 c 0
 138 483 126 476 110 476 c 0
 98 476 88 489 88 500 c 0
46 7 m 1
 48 16 l 1
 68 35 100 58 100 89 c 1
 85 98 71 115 71 133 c 0
 71 152 92 164 109 164 c 0
 129 164 142 145 142 126 c 0
 142 91 102 0 62 -1 c 1
 46 7 l 1
EndSplineSet
EndChar

StartChar: question
Encoding: 63 63 27
Width: 227
Flags: HW
LayerCount: 2
Fore
SplineSet
53.306640625 626.247070312 m 16
 48.845703125 648.787109375 46 670.212890625 46 688.385742188 c 1
 46 725.385742188 59 770.385742188 104 770.385742188 c 0
 129.563476562 770.385742188 149.512695312 764.094726562 158 748.385742188 c 0
 172.368164062 718.385742188 179 670.385742188 179 637.385742188 c 0
 179 468.02734375 105.5 408.114257812 116 117.985351562 c 1
 116 119.751953125 109.986328125 115 103.9453125 115 c 0
 99.53515625 115 95.1103515625 117.533203125 93 126.985351562 c 1
 93 217.331054688 98.34375 311.604492188 112 399.985351562 c 0
 125.666992188 477.352539062 153 554.719726562 153 636.385742188 c 0
 153 659.385742188 149 748.385742188 117 748.385742188 c 0
 114 748.385742188 110 748.385742188 106 748.385742188 c 0
 75.0732421875 748.385742188 71 714.85546875 71 686.385742188 c 0
 71 676.9375 73.7021484375 654.237304688 78.052734375 626.600585938 c 8
 79.5537109375 626.467773438 55.181640625 616.7734375 53.306640625 626.247070312 c 16
81.9453125 20 m 0
 81.9453125 33 94.9453125 47 107.9453125 47 c 0
 119.9453125 47 131.9453125 32 131.9453125 21 c 0
 131.9453125 3 119.9453125 -4 103.9453125 -4 c 0
 91.9453125 -4 81.9453125 9 81.9453125 20 c 0
EndSplineSet
EndChar

StartChar: at
Encoding: 64 64 28
Width: 525
Flags: W
LayerCount: 2
Fore
SplineSet
95 136 m 1
 94 151 87 162 82 176 c 0
 66 221 49 444 49 500 c 0
 49 574 51 649 66 722 c 0
 89 836 116 895 244 895 c 0
 422 895 444 709 465 573 c 0
 472 529 480 485 480 441 c 0
 480 390 478 276 406 276 c 0
 381 276 374 296 355 301 c 1
 337 261 293 228 248 228 c 0
 135 228 128 380 128 466 c 0
 128 558 122 715 250 715 c 0
 276 715 303 705 321 686 c 0
 341 665 369 385 375 335 c 1
 386 330 l 1
 389 324 399 305 407 305 c 0
 446 305 446 420 446 447 c 0
 446 551 427 659 390 757 c 0
 361 832 322 866 239 866 c 0
 115 866 102 774 96 674 c 0
 94 644 93 607 82 579 c 1
 83 566 84 553 84 540 c 0
 84 530 84 518 80 508 c 1
 82 504 82 499 82 495 c 0
 82 438 89 383 95 326 c 0
 106 230 94 173 154 88 c 0
 170 65 192 42 222 42 c 0
 301 42 357 64 411 121 c 0
 416 126 426 138 433 140 c 1
 442 131 l 1
 422 61 291 19 226 19 c 0
 159 19 120 82 95 136 c 1
250 688 m 0
 172 688 168 591 168 534 c 2
 168 406 l 2
 168 343 173 257 256 257 c 0
 295 257 333 330 333 364 c 2
 333 439 l 2
 333 494 320 549 309 602 c 0
 300 644 301 688 250 688 c 0
EndSplineSet
EndChar

StartChar: A
Encoding: 65 65 29
Width: 340
Flags: W
LayerCount: 2
Fore
SplineSet
247 17 m 1
 249 21 250 25 250 29 c 0
 250 36 247 42 247 49 c 2
 247 148 l 2
 247 168 135 180 116 180 c 0
 93 180 87 37 69 10 c 1
 54 10 45 10 38 22 c 1
 58 51 75 187 85 230 c 0
 115 360 130 492 159 622 c 0
 163 641 188 750 206 750 c 0
 216 750 223 748 229 740 c 0
 239 725 256 493 259 459 c 0
 260 445 264 395 270 383 c 1
 269 368 268 353 268 339 c 0
 268 323 269 307 277 293 c 1
 277 206 288 119 288 32 c 0
 288 14 289 0 266 0 c 0
 256 0 247 7 247 17 c 1
113 208 m 1
 142 198 183 194 214 194 c 0
 220 194 226 194 232 196 c 1
 237 194 l 1
 243 194 246 198 246 203 c 0
 246 353 231 506 207 654 c 0
 206 662 203 669 203 677 c 1
 198 663 192 648 190 633 c 1
 193 627 l 1
 189 623 188 617 187 612 c 0
 162 518 158 419 136 324 c 0
 128 288 113 251 113 214 c 2
 113 208 l 1
EndSplineSet
EndChar

StartChar: B
Encoding: 66 66 30
Width: 301
Flags: W
LayerCount: 2
Fore
SplineSet
55 8 m 0
 55 92 60 177 60 261 c 0
 60 400 53 539 53 678 c 0
 53 695 53 750 79 750 c 0
 174 750 219 681 219 593 c 0
 219 531 191 476 155 427 c 1
 215 337 251 321 251 231 c 0
 251 217 248 202 248 188 c 0
 248 184 250 180 251 177 c 1
 239 85 223 43 134 4 c 1
 120 3 108 -6 94 -6 c 0
 84 -6 55 -6 55 8 c 0
93 34 m 1
 95 34 97 33 99 33 c 0
 140 33 209 86 219 126 c 0
 223 144 223 163 223 181 c 0
 223 253 215 364 137 396 c 1
 120 395 105 388 88 385 c 1
 92 268 93 151 93 34 c 1
88 433 m 1
 89 433 91 432 91 432 c 1
 153 432 174 536 193 581 c 1
 193 619 l 2
 193 662 156 716 110 716 c 0
 87 716 84 690 84 673 c 0
 84 593 88 513 88 433 c 1
EndSplineSet
EndChar

StartChar: C
Encoding: 67 67 31
Width: 340
Flags: W
LayerCount: 2
Fore
SplineSet
47 428 m 0
 47 454 48 590 53 605 c 1
 51 615 50 626 50 637 c 0
 50 721 120 764 198 764 c 0
 217 764 256 750 256 727 c 0
 256 718 247 716 240 716 c 0
 230 716 226 728 214 728 c 0
 210 728 207 727 204 726 c 1
 201 727 193 730 190 730 c 0
 84 730 80 646 80 563 c 0
 80 539 83 516 83 492 c 0
 83 468 74 444 74 420 c 0
 74 365 93 96 115 62 c 0
 133 34 169 23 200 23 c 0
 226 23 253 32 270 52 c 1
 278 52 285 53 293 55 c 1
 298 50 l 1
 298 -1 227 -16 187 -16 c 0
 147 -16 100 21 84 56 c 0
 65 97 47 369 47 428 c 0
197 720 m 1
 195 720 l 1
 197 720 l 1
EndSplineSet
EndChar

StartChar: D
Encoding: 68 68 32
Width: 343
Flags: W
LayerCount: 2
Fore
SplineSet
56 18 m 1
 65 29 71 44 72 58 c 2
 76 146 l 1
 75 159 77 172 77 186 c 0
 77 264 68 341 62 419 c 1
 54 436 60 637 54 679 c 0
 51 696 40 713 40 731 c 0
 40 755 97 755 115 755 c 2
 120 755 l 2
 175 755 243 678 262 631 c 0
 287 567 278 447 290 421 c 1
 288 394 l 1
 291 389 l 1
 288 381 l 1
 291 376 l 1
 286 368 285 353 285 345 c 0
 285 300 275 275 266 239 c 0
 247 163 225 96 162 44 c 0
 143 29 104 -2 93 -2 c 0
 81 -2 58 4 56 18 c 1
103 77 m 1
 103 49 l 1
 108 49 l 1
 240 119 261 333 261 427 c 0
 261 553 240 719 100 719 c 0
 92 719 80 719 79 708 c 1
 79 652 88 597 88 542 c 0
 88 414 103 287 103 161 c 0
 103 134 102 108 101 81 c 1
 103 77 l 1
EndSplineSet
EndChar

StartChar: E
Encoding: 69 69 33
Width: 243
Flags: W
LayerCount: 2
Fore
SplineSet
51 16 m 0
 51 29 60 40 60 53 c 2
 60 55 l 1
 57 70 56 84 56 99 c 0
 56 133 61 167 61 201 c 0
 61 272 55 344 55 415 c 0
 55 481 60 548 60 614 c 0
 60 649 48 684 47 719 c 1
 51 725 61 743 65 747 c 1
 91 747 114 756 135 756 c 1
 138 753 l 1
 152 753 169 753 169 734 c 0
 169 715 147 715 133 715 c 0
 124 715 115 717 106 717 c 0
 98 717 84 716 84 705 c 0
 84 648 92 592 92 535 c 0
 92 493 87 452 87 410 c 1
 85 408 l 1
 91 405 l 1
 110 406 127 415 146 415 c 0
 153 415 164 406 164 398 c 0
 164 389 160 378 149 378 c 0
 144 378 135 379 126 379 c 0
 108 379 88 376 88 360 c 0
 88 332 95 304 95 276 c 1
 92 270 l 1
 92 67 l 1
 97 61 97 47 97 39 c 2
 97 30 l 1
 117 30 137 33 157 33 c 0
 167 33 204 33 204 17 c 1
 192 -5 154 -6 115 -6 c 0
 86 -6 51 -8 51 16 c 0
EndSplineSet
EndChar

StartChar: F
Encoding: 70 70 34
Width: 214
Flags: W
LayerCount: 2
Fore
SplineSet
88 -2 m 0
 71 -2 71 55 71 66 c 0
 71 77 72 87 72 98 c 0
 72 199 59 299 59 400 c 0
 59 447 59 690 40 714 c 1
 40 720 l 2
 40 756 114 756 139 756 c 0
 151 756 156 743 156 733 c 0
 156 723 143 723 137 723 c 0
 131 723 122 724 113 724 c 0
 95 724 76 720 76 701 c 0
 76 604 91 509 91 412 c 1
 114 412 135 424 158 424 c 0
 167 424 174 412 174 404 c 0
 174 375 91 396 91 372 c 0
 91 259 110 148 110 35 c 1
 107 30 l 1
 109 25 110 20 110 15 c 0
 110 2 100 -2 88 -2 c 0
EndSplineSet
EndChar

StartChar: G
Encoding: 71 71 35
Width: 378
Flags: W
LayerCount: 2
Fore
SplineSet
200 -20 m 1
 81 6 67 60 56 171 c 0
 48 256 46 342 46 428 c 0
 46 537 50 767 205 767 c 0
 216 767 235 765 235 750 c 0
 235 740 229 738 220 738 c 0
 210 738 202 743 192 743 c 0
 74 743 82 483 80 404 c 0
 79 364 77 324 77 284 c 0
 77 195 83 12 208 12 c 0
 247 12 272 30 293 62 c 1
 293 81 290 191 267 191 c 0
 254 191 241 187 227 187 c 0
 216 187 204 190 204 204 c 0
 204 218 267 226 279 226 c 0
 303 226 310 204 310 184 c 0
 310 124 330 66 330 6 c 0
 330 -2 327 -10 317 -10 c 0
 303 -10 293 -3 293 12 c 0
 293 13 294 16 294 17 c 1
 275 11 262 -5 243 -11 c 0
 228 -16 211 -11 198 -20 c 1
 200 -20 l 1
EndSplineSet
EndChar

StartChar: H
Encoding: 72 72 36
Width: 294
Flags: W
LayerCount: 2
Fore
SplineSet
222 -16 m 0
 209 -16 208 -3 208 6 c 0
 208 14 209 21 209 29 c 0
 209 143 205 258 199 372 c 1
 197 372 195 371 193 371 c 0
 181 371 167 376 155 376 c 0
 131 376 105 376 84 364 c 1
 84 248 101 134 101 18 c 0
 101 10 101 3 91 3 c 0
 82 3 78 4 75 13 c 0
 65 42 68 241 64 292 c 0
 53 444 46 596 46 748 c 1
 62 756 l 1
 75 745 l 1
 72 720 71 696 71 671 c 0
 71 603 79 536 79 468 c 0
 79 455 78 441 78 428 c 0
 78 416 79 404 82 393 c 1
 121 393 160 401 199 401 c 1
 200 403 l 1
 200 516 191 629 191 742 c 0
 191 747 192 751 193 756 c 1
 219 756 221 714 221 675 c 0
 221 366 236 143 236 24 c 1
 238 20 240 15 240 10 c 0
 240 2 232 -16 222 -16 c 0
EndSplineSet
EndChar

StartChar: I
Encoding: 73 73 37
Width: 233
Flags: W
LayerCount: 2
Fore
SplineSet
93 5 m 1
 76 5 45 4 37 22 c 1
 37 33 52 33 60 33 c 0
 69 33 76 32 82 32 c 0
 90 32 102 36 103 67 c 1
 103 109 97 150 96 191 c 0
 94 309 87 426 84 544 c 0
 84 566 85 618 85 661 c 0
 85 687 85 709 82 719 c 1
 70 719 60 712 48 712 c 0
 39 712 37 719 37 726 c 0
 37 747 131 758 149 758 c 0
 158 758 167 751 167 741 c 0
 167 734 164 725 155 725 c 0
 146 725 138 726 131 726 c 0
 108 726 107 705 107 663 c 0
 107 472 132 282 132 90 c 0
 132 73 131 55 131 38 c 1
 143 38 155 41 167 41 c 0
 185 41 193 34 193 16 c 1
 176 4 l 1
 165 4 155 9 144 9 c 0
 135 9 127 3 121 -3 c 1
 111 -3 100 -4 93 5 c 1
EndSplineSet
EndChar

StartChar: J
Encoding: 74 74 38
Width: 229
Flags: W
LayerCount: 2
Fore
SplineSet
50 -78 m 0
 51 -65 77 -54 86 -45 c 0
 126 -5 130 66 130 108 c 0
 130 202 121 297 119 391 c 0
 117 477 114 563 110 649 c 0
 109 675 107 701 102 727 c 1
 84 727 67 718 49 718 c 0
 41 718 35 725 35 733 c 0
 35 757 148 758 173 758 c 0
 182 758 189 751 189 742 c 0
 189 724 144 728 132 727 c 1
 132 721 131 715 131 708 c 0
 131 655 143 603 143 549 c 0
 143 415 161 284 161 149 c 0
 161 124 156 102 156 67 c 0
 156 59 157 53 159 49 c 1
 152 33 l 1
 149 -19 105 -72 71 -97 c 1
 58 -97 50 -91 50 -78 c 0
102 -12 m 2
 103 -12 103 -12 103 -13 c 2
 102 -12 l 2
EndSplineSet
EndChar

StartChar: K
Encoding: 75 75 39
Width: 337
Flags: W
LayerCount: 2
Fore
SplineSet
130 444 m 1
 127 442 l 1
 121 417 89 379 87 358 c 0
 84 333 84 306 84 281 c 0
 84 207 89 133 89 60 c 0
 89 30 87 -3 68 -3 c 0
 53 -3 50 22 50 43 c 0
 50 136 63 228 63 321 c 0
 63 440 59 561 59 680 c 1
 57 684 l 1
 57 700 50 715 50 731 c 0
 50 741 55 752 67 752 c 0
 87 752 91 749 91 636 c 0
 91 552 87 445 87 422 c 1
 88 422 l 1
 122 494 148 568 179 641 c 0
 187 661 234 780 250 780 c 0
 259 780 267 775 267 765 c 1
 264 741 250 727 241 707 c 0
 222 666 152 523 148 485 c 1
 153 476 l 1
 149 473 l 1
 211 316 241 154 296 -4 c 1
 295 -15 288 -23 276 -23 c 0
 275 -23 263 -19 262 -19 c 0
 247 70 225 159 201 245 c 0
 182 312 162 382 130 444 c 1
EndSplineSet
EndChar

StartChar: L
Encoding: 76 76 40
Width: 232
Flags: W
LayerCount: 2
Fore
SplineSet
62 10 m 0
 62 19 68 35 68 55 c 0
 68 149 58 244 58 339 c 0
 58 478 48 618 48 757 c 0
 48 765 54 767 61 767 c 0
 72 767 80 760 80 749 c 0
 80 658 80 568 84 477 c 0
 85 443 90 410 90 376 c 0
 90 364 89 353 88 341 c 1
 91 337 l 1
 90 324 89 311 89 298 c 0
 89 222 98 147 100 71 c 1
 96 65 96 58 96 51 c 0
 96 32 101 27 119 27 c 0
 126 27 136 27 141 33 c 1
 178 33 l 1
 184 28 192 24 192 15 c 0
 192 7 187 -2 178 -2 c 0
 174 -2 167 1 163 2 c 1
 158 0 149 0 143 0 c 0
 133 0 122 1 112 1 c 0
 101 1 95 -11 84 -11 c 0
 74 -11 62 -1 62 10 c 0
EndSplineSet
EndChar

StartChar: M
Encoding: 77 77 41
Width: 418
Flags: W
LayerCount: 2
Fore
SplineSet
325 -19 m 1
 325 -16 l 2
 325 -12 326 -8 328 -4 c 1
 324 5 l 1
 325 35 326 65 326 96 c 0
 326 206 319 315 319 425 c 0
 319 462 321 500 321 537 c 0
 321 567 318 596 317 626 c 1
 315 624 315 622 315 619 c 0
 312 549 297 477 284 408 c 0
 274 353 261 289 245 236 c 0
 240 220 231 206 231 189 c 1
 234 184 l 1
 228 166 228 109 202 109 c 0
 177 109 180 185 178 202 c 0
 172 246 93 631 84 643 c 1
 81 575 80 508 80 441 c 0
 80 335 83 229 83 123 c 0
 83 91 88 60 88 28 c 0
 88 17 88 10 80 2 c 1
 55 2 52 30 52 54 c 0
 52 106 57 165 57 221 c 0
 57 288 53 356 53 424 c 0
 53 503 56 582 56 661 c 0
 56 690 56 718 55 747 c 1
 74 758 l 1
 103 755 153 474 180 350 c 0
 187 319 207 238 207 208 c 1
 214 225 235 338 240 361 c 0
 257 443 271 524 286 606 c 0
 295 655 309 705 311 754 c 1
 309 759 l 1
 311 770 323 775 333 775 c 0
 338 775 345 766 345 761 c 0
 343 723 342 685 342 647 c 0
 342 496 358 345 358 195 c 0
 358 181 358 166 356 152 c 1
 356 123 363 103 363 45 c 0
 363 12 360 -20 348 -26 c 1
 348 -23 l 1
 344 -27 l 1
 325 -19 l 1
122 493 m 1
 123 493 l 1
 122 493 l 1
EndSplineSet
EndChar

StartChar: N
Encoding: 78 78 42
Width: 377
Flags: W
LayerCount: 2
Fore
SplineSet
119 538 m 1
 121 543 l 1
 112 590 105 639 87 684 c 1
 86 674 84 665 84 655 c 0
 84 649 84 642 86 636 c 1
 80 616 79 588 79 567 c 2
 79 293 l 2
 79 197 93 104 93 8 c 1
 86 0 l 1
 63 0 l 1
 60 8 l 1
 62 16 62 39 62 48 c 0
 62 164 51 280 51 396 c 2
 51 527 l 2
 51 590 58 653 58 716 c 0
 58 723 57 730 57 737 c 0
 57 755 68 758 84 758 c 0
 93 758 107 749 107 739 c 0
 107 695 124 676 136 636 c 0
 146 603 145 568 152 535 c 0
 171 443 200 353 224 263 c 0
 231 235 248 181 249 153 c 1
 265 129 253 93 276 73 c 1
 282 86 282 107 282 121 c 0
 282 237 286 353 286 469 c 0
 286 521 283 572 283 624 c 0
 283 637 286 650 286 662 c 0
 286 665 286 673 283 675 c 1
 286 683 l 1
 286 709 287 739 282 765 c 1
 285 775 297 779 307 779 c 0
 322 779 323 757 323 746 c 1
 318 736 317 724 317 713 c 0
 317 702 318 690 318 679 c 0
 318 669 318 658 314 649 c 1
 314 544 311 438 311 333 c 0
 311 324 312 315 313 306 c 1
 311 302 l 1
 311 176 l 2
 311 165 313 152 313 138 c 0
 313 116 312 76 303 56 c 1
 303 54 l 2
 303 42 306 30 306 18 c 0
 306 1 300 -11 281 -11 c 0
 258 -11 258 31 253 46 c 0
 206 194 158 343 130 496 c 0
 127 510 130 527 119 538 c 1
EndSplineSet
EndChar

StartChar: O
Encoding: 79 79 43
Width: 340
Flags: W
LayerCount: 2
Fore
SplineSet
46 390 m 0
 46 446 50 503 54 559 c 0
 58 624 46 767 143 767 c 0
 166 767 191 761 208 746 c 1
 207 747 l 1
 219 728 235 713 244 693 c 0
 255 666 258 634 262 605 c 0
 276 504 286 404 286 302 c 0
 286 259 277 216 277 173 c 1
 279 169 l 1
 274 148 271 126 271 105 c 0
 271 61 235 -21 183 -21 c 0
 61 -21 46 304 46 390 c 0
148 741 m 0
 72 741 74 488 74 445 c 2
 74 406 l 2
 74 337 94 7 185 7 c 0
 255 7 257 264 257 319 c 0
 257 395 258 741 148 741 c 0
EndSplineSet
EndChar

StartChar: P
Encoding: 80 80 44
Width: 264
Flags: W
LayerCount: 2
Fore
SplineSet
76 -6 m 0
 64 -6 64 22 64 29 c 0
 64 89 68 148 68 208 c 0
 68 262 60 316 60 370 c 0
 60 453 58 536 55 618 c 0
 53 660 54 709 44 750 c 1
 50 759 59 764 70 764 c 0
 169 764 215 666 215 579 c 0
 215 521 187 421 140 384 c 0
 132 377 122 376 114 370 c 0
 104 363 103 357 90 354 c 1
 90 244 98 135 98 25 c 0
 98 9 96 -6 76 -6 c 0
76 735 m 1
 76 621 88 507 88 393 c 1
 90 391 l 1
 105 392 112 404 122 414 c 0
 170 462 187 514 187 577 c 0
 187 671 165 684 94 735 c 1
 76 735 l 1
EndSplineSet
EndChar

StartChar: Q
Encoding: 81 81 45
Width: 355
Flags: W
LayerCount: 2
Fore
SplineSet
277 -138 m 0
 270 -138 255 -128 247 -125 c 0
 205 -107 207 -31 194 13 c 1
 148 13 l 1
 56 78 47 176 47 280 c 0
 47 336 52 391 52 447 c 0
 52 461 51 483 51 508 c 0
 51 610 60 770 150 770 c 0
 197 770 252 725 260 679 c 0
 282 555 287 416 287 290 c 0
 287 235 285 149 268 98 c 0
 262 81 236 42 225 26 c 1
 226 14 232 4 235 -7 c 0
 243 -36 234 -106 280 -106 c 0
 289 -106 315 -105 315 -119 c 0
 315 -138 290 -138 277 -138 c 0
75 330 m 2
 75 288 l 2
 75 223 91 39 182 39 c 1
 189 44 l 1
 193 56 205 47 214 54 c 0
 258 93 245 164 249 216 c 0
 250 232 256 249 256 265 c 2
 256 401 l 1
 252 411 252 422 252 433 c 0
 252 493 245 533 239 592 c 0
 232 661 237 742 143 742 c 0
 72 742 75 387 75 330 c 2
EndSplineSet
EndChar

StartChar: R
Encoding: 82 82 46
Width: 289
Flags: W
LayerCount: 2
Fore
SplineSet
207 10 m 1
 202 79 168 144 154 211 c 0
 139 279 130 348 112 415 c 1
 104 421 l 1
 85 413 l 1
 85 38 l 2
 85 30 87 22 87 13 c 0
 87 1 83 -7 69 -7 c 0
 59 -7 52 0 52 10 c 1
 55 15 l 1
 55 217 59 420 59 622 c 2
 59 733 l 2
 59 739 57 745 57 751 c 0
 57 759 70 760 77 760 c 0
 136 760 160 722 174 672 c 1
 180 642 188 626 188 601 c 0
 188 567 180 533 168 501 c 0
 164 489 142 439 142 430 c 0
 142 359 216 95 245 23 c 1
 245 15 245 -10 232 -10 c 0
 220 -10 214 2 207 10 c 1
82 510 m 0
 82 489 82 467 85 446 c 1
 87 446 l 2
 98 446 132 487 138 497 c 0
 149 518 155 565 155 589 c 0
 155 625 144 726 95 726 c 1
 95 729 l 1
 87 728 l 1
 87 655 82 583 82 510 c 0
EndSplineSet
EndChar

StartChar: S
Encoding: 83 83 47
Width: 278
Flags: W
LayerCount: 2
Fore
SplineSet
39 3 m 1
 39 10 41 15 50 15 c 0
 70 15 86 0 105 0 c 0
 171 0 194 116 194 166 c 0
 194 352 51 452 51 629 c 0
 51 687 82 768 151 768 c 0
 163 768 192 755 197 743 c 1
 191 732 l 1
 178 732 168 732 158 742 c 1
 107 742 85 679 85 637 c 0
 85 525 141 433 193 338 c 0
 193 337 192 335 192 334 c 0
 192 329 212 267 215 257 c 0
 223 226 230 194 230 161 c 0
 230 89 192 -22 105 -22 c 0
 81 -22 52 -21 39 3 c 1
EndSplineSet
EndChar

StartChar: T
Encoding: 84 84 48
Width: 265
Flags: W
LayerCount: 2
Fore
SplineSet
134 34 m 0
 135 89 142 143 142 198 c 0
 142 304 128 411 128 518 c 0
 128 539 129 543 129 612 c 0
 129 660 126 715 112 715 c 0
 93 715 74 709 55 709 c 0
 46 709 34 715 34 726 c 0
 34 741 165 755 206 755 c 0
 215 755 227 748 227 738 c 0
 227 726 219 723 208 723 c 0
 197 723 182 726 171 726 c 0
 161 726 153 724 150 716 c 1
 155 674 157 630 157 586 c 0
 157 546 156 505 156 465 c 0
 156 413 155 349 170 295 c 1
 168 285 167 276 167 266 c 0
 167 189 172 108 172 33 c 0
 172 18 170 -6 155 -6 c 0
 140 -6 134 22 134 34 c 0
EndSplineSet
EndChar

StartChar: U
Encoding: 85 85 49
Width: 363
Flags: W
LayerCount: 2
Fore
SplineSet
68 231 m 1
 68 390 48 548 48 707 c 0
 48 717 41 720 41 728 c 0
 41 737 48 748 58 748 c 0
 83 748 83 692 83 675 c 0
 83 563 92 449 92 337 c 1
 101 326 96 264 106 224 c 1
 105 218 104 212 104 206 c 0
 104 152 157 13 223 13 c 0
 275 13 270 58 274 96 c 1
 273 98 273 101 273 104 c 0
 273 115 276 126 276 137 c 2
 276 251 l 2
 276 271 269 291 269 311 c 0
 269 371 263 430 263 490 c 2
 263 503 l 1
 259 509 l 1
 262 528 263 547 263 566 c 0
 263 623 254 679 254 736 c 0
 254 747 267 752 276 752 c 1
 293 736 l 1
 290 728 l 1
 293 720 l 1
 293 700 286 680 286 660 c 0
 286 600 296 540 296 480 c 0
 296 422 301 364 301 306 c 1
 304 305 l 1
 303 298 303 291 303 284 c 0
 303 261 306 237 306 214 c 1
 309 211 l 1
 306 208 l 1
 306 187 307 166 307 145 c 0
 307 83 301 -19 217 -19 c 0
 84 -19 97 176 68 231 c 1
EndSplineSet
EndChar

StartChar: V
Encoding: 86 86 50
Width: 327
Flags: W
LayerCount: 2
Fore
SplineSet
168 -5 m 1
 150 67 139 143 128 216 c 0
 109 334 92 455 73 573 c 0
 68 602 48 722 36 745 c 1
 39 754 48 756 56 756 c 0
 74 756 76 726 78 714 c 0
 115 516 131 315 177 118 c 1
 183 149 185 182 189 213 c 0
 205 353 222 494 237 634 c 0
 241 669 245 705 245 740 c 2
 245 744 l 1
 252 751 259 759 270 759 c 1
 276 755 l 1
 274 755 l 1
 284 747 l 1
 284 705 270 665 270 623 c 1
 255 596 203 78 202 13 c 1
 199 5 193 -9 183 -9 c 0
 179 -9 172 -6 168 -5 c 1
177 115 m 1
 175 113 l 1
 178 113 l 1
 177 115 l 1
EndSplineSet
EndChar

StartChar: W
Encoding: 87 87 51
Width: 464
Flags: W
LayerCount: 2
Fore
SplineSet
153 -13 m 0
 125 -13 129 55 128 73 c 0
 126 120 115 166 108 212 c 0
 97 284 51 715 36 739 c 1
 40 746 49 752 57 752 c 0
 93 752 93 571 96 540 c 0
 108 410 133 281 148 151 c 1
 150 151 l 1
 150 214 161 278 167 341 c 0
 169 364 176 386 178 409 c 0
 182 465 183 522 189 578 c 0
 191 598 196 618 196 639 c 0
 196 645 195 651 195 657 c 0
 195 667 201 673 209 677 c 1
 221 677 239 675 239 659 c 1
 234 646 l 1
 234 466 317 293 317 120 c 1
 320 118 l 1
 325 137 324 157 325 176 c 0
 331 277 351 378 357 479 c 0
 362 564 380 649 380 734 c 0
 380 741 379 747 379 753 c 0
 379 767 383 777 405 777 c 0
 413 777 424 770 424 761 c 0
 424 754 418 746 413 742 c 1
 414 740 414 738 414 736 c 0
 414 728 411 721 410 714 c 0
 391 556 389 399 363 242 c 0
 352 177 338 92 338 26 c 2
 338 11 l 2
 338 -2 336 -13 320 -13 c 0
 293 -13 285 143 281 169 c 0
 264 284 232 396 218 512 c 1
 215 514 l 2
 215 513 214 513 214 512 c 0
 207 479 213 445 206 412 c 0
 193 350 188 285 183 222 c 0
 177 149 170 76 170 3 c 0
 170 -1 161 -13 153 -13 c 0
320 115 m 2
 319 115 318 115 318 114 c 2
 320 115 l 2
163 567 m 1
 163 565 l 1
 163 567 l 1
EndSplineSet
EndChar

StartChar: X
Encoding: 88 88 52
Width: 276
Flags: W
LayerCount: 2
Fore
SplineSet
40 6 m 0
 40 19 57 66 62 83 c 0
 79 147 92 212 105 276 c 0
 113 315 124 361 124 401 c 0
 124 478 99 554 84 629 c 0
 77 663 60 695 59 730 c 1
 62 735 69 743 75 743 c 0
 100 743 93 716 96 700 c 0
 108 631 130 561 141 490 c 1
 163 548 173 613 184 674 c 0
 187 691 191 758 214 758 c 0
 221 758 232 756 232 747 c 0
 232 733 223 720 219 707 c 0
 202 648 190 581 178 518 c 0
 170 478 158 424 158 386 c 1
 211 116 l 1
 209 111 l 1
 209 83 226 58 226 30 c 0
 226 22 218 13 210 13 c 0
 201 13 192 14 192 26 c 0
 192 62 183 101 177 136 c 0
 166 193 155 251 141 307 c 1
 134 296 86 64 80 30 c 0
 77 12 77 -6 55 -6 c 0
 50 -6 40 0 40 6 c 0
140 310 m 1
 138 310 l 1
 138 309 139 309 140 309 c 1
 140 310 l 1
EndSplineSet
EndChar

StartChar: Y
Encoding: 89 89 53
Width: 247
Flags: W
LayerCount: 2
Fore
SplineSet
127 12 m 0
 127 76 132 141 132 205 c 0
 132 232 125 259 125 286 c 0
 125 318 113 348 113 379 c 0
 113 397 101 440 97 458 c 0
 82 531 70 607 51 674 c 0
 45 693 36 719 36 739 c 0
 36 750 47 755 56 755 c 1
 68 747 l 1
 71 702 112 481 131 454 c 1
 164 548 152 752 190 752 c 0
 199 752 205 752 205 741 c 0
 205 727 199 714 197 700 c 0
 181 606 157 503 157 405 c 0
 157 394 160 383 160 372 c 1
 154 357 l 1
 154 349 l 2
 154 309 161 269 161 229 c 0
 161 162 161 94 159 27 c 1
 162 24 l 1
 162 22 163 19 163 17 c 0
 163 4 156 -12 141 -12 c 0
 130 -12 127 4 127 12 c 0
EndSplineSet
EndChar

StartChar: Z
Encoding: 90 90 54
Width: 230
Flags: W
LayerCount: 2
Fore
SplineSet
38 4 m 1
 86 89 80 199 99 287 c 1
 114 397 130 509 145 619 c 0
 150 656 157 695 158 732 c 1
 136 732 114 727 91 727 c 0
 78 727 46 728 46 747 c 1
 53 755 l 1
 61 753 69 753 77 753 c 0
 109 753 139 763 171 763 c 0
 182 763 187 755 187 745 c 1
 172 711 173 645 167 605 c 0
 143 435 125 264 97 95 c 0
 93 69 74 46 74 19 c 1
 96 19 117 24 139 24 c 0
 152 24 181 23 181 4 c 1
 172 -5 l 1
 132 -5 93 -9 53 -9 c 0
 44 -9 41 -4 38 4 c 1
EndSplineSet
EndChar

StartChar: bracketleft
Encoding: 91 91 55
Width: 251
Flags: W
LayerCount: 2
Fore
SplineSet
173 -33 m 0
 173 -41 162 -43 156 -43 c 0
 139 -43 43 -37 43 -17 c 0
 43 66 64 147 64 230 c 0
 64 395 90 558 90 723 c 0
 90 732 82 737 80 746 c 1
 100 758 l 1
 117 757 215 760 215 738 c 0
 215 731 205 727 199 727 c 0
 180 727 162 733 143 733 c 0
 129 733 113 730 113 712 c 0
 113 537 98 357 87 181 c 0
 86 161 79 40 74 25 c 1
 74 1 l 1
 70 -7 l 1
 89 -11 173 -6 173 -33 c 0
EndSplineSet
EndChar

StartChar: backslash
Encoding: 92 92 56
Width: 273
Flags: W
LayerCount: 2
Fore
SplineSet
222 -3 m 1
 201 -1 198 38 193 59 c 2
 173 146 l 2
 134 313 92 477 60 643 c 0
 58 653 40 727 40 735 c 0
 40 744 47 748 55 748 c 0
 63 748 70 713 72 707 c 0
 117 535 158 362 197 189 c 0
 210 130 232 63 232 15 c 0
 232 8 228 1 222 -3 c 1
EndSplineSet
EndChar

StartChar: bracketright
Encoding: 93 93 57
Width: 252
Flags: W
LayerCount: 2
Fore
SplineSet
80 -33 m 0
 80 -6 164 -11 183 -7 c 1
 179 1 l 1
 179 25 l 1
 167 52 148 518 146 588 c 0
 145 629 140 671 140 712 c 0
 140 725 137 732 123 732 c 0
 104 732 86 728 67 728 c 0
 61 728 38 727 38 738 c 0
 38 760 136 757 153 758 c 1
 173 746 l 1
 171 737 163 732 163 723 c 0
 163 565 190 407 190 249 c 0
 190 160 210 72 210 -17 c 0
 210 -37 114 -43 97 -43 c 0
 91 -43 80 -41 80 -33 c 0
EndSplineSet
EndChar

StartChar: asciicircum
Encoding: 94 94 58
Width: 156
Flags: W
LayerCount: 2
Fore
SplineSet
57 769 m 0
 57 781 62 797 76 797 c 0
 90 797 101 787 101 773 c 0
 101 760 95 751 81 751 c 0
 69 751 57 755 57 769 c 0
EndSplineSet
EndChar

StartChar: underscore
Encoding: 95 95 59
Width: 276
Flags: W
LayerCount: 2
Fore
SplineSet
49 532 m 0
 49 574 51 672 97 690 c 1
 119 690 164 678 164 665 c 1
 197 624 216 423 218 363 c 1
 220 360 l 1
 220 317 233 276 233 233 c 2
 233 146 l 1
 211 100 240 19 155 19 c 0
 84 19 70 111 67 165 c 0
 59 287 49 410 49 532 c 0
71 449 m 2
 71 374 73 300 83 226 c 1
 83 158 86 82 145 41 c 1
 209 41 212 129 212 175 c 0
 212 221 206 259 199 305 c 0
 187 379 186 454 177 528 c 0
 171 573 170 671 106 671 c 0
 74 671 71 557 71 491 c 2
 71 449 l 2
139 762 m 1
 132 775 l 1
 132 792 139 803 157 803 c 0
 170 803 185 796 185 781 c 0
 185 766 170 754 155 754 c 1
 139 762 l 1
EndSplineSet
EndChar

StartChar: grave
Encoding: 96 96 60
Width: 269
Flags: W
LayerCount: 2
Fore
SplineSet
101 792 m 1
 96 791 91 790 85 790 c 0
 73 790 51 793 51 810 c 0
 51 816 51 828 57 832 c 1
 71 832 92 833 102 821 c 1
 121 814 214 784 214 764 c 0
 214 759 206 756 202 756 c 0
 199 756 107 789 101 792 c 1
EndSplineSet
EndChar

StartChar: a
Encoding: 97 97 61
Width: 326
Flags: W
LayerCount: 2
Fore
SplineSet
153 148 m 1
 139 154 123 154 108 154 c 0
 100 154 102 150 100 146 c 1
 98 126 l 2
 96 107 82 -5 60 -5 c 0
 52 -5 40 3 40 12 c 0
 40 14 42 16 42 18 c 0
 71 132 88 248 107 363 c 0
 117 423 133 482 142 543 c 0
 145 565 152 654 159 666 c 1
 163 666 168 665 173 665 c 0
 180 665 186 666 191 671 c 1
 199 671 209 666 209 656 c 0
 209 592 216 528 222 464 c 0
 228 395 235 325 247 257 c 0
 253 224 266 189 266 155 c 0
 266 150 261 146 261 141 c 0
 261 96 278 54 278 9 c 0
 278 2 277 -5 270 -9 c 1
 252 -9 240 -9 240 13 c 0
 240 57 231 101 224 144 c 1
 209 148 194 149 179 149 c 0
 170 149 162 148 153 148 c 1
109 198 m 0
 109 175 197 171 214 171 c 2
 224 171 l 1
 219 186 218 201 218 216 c 2
 218 239 l 2
 218 359 188 476 186 596 c 1
 168 507 149 418 132 329 c 0
 126 300 109 225 109 198 c 0
EndSplineSet
EndChar

StartChar: b
Encoding: 98 98 62
Width: 259
Flags: W
LayerCount: 2
Fore
SplineSet
51 10 m 1
 50 20 50 30 50 41 c 0
 50 111 60 182 60 252 c 0
 60 282 58 312 58 341 c 0
 58 421 64 500 64 580 c 0
 64 599 64 618 63 638 c 1
 59 643 l 1
 59 649 l 2
 59 663 62 675 80 675 c 0
 93 675 169 656 170 642 c 1
 170 642 169 640 169 639 c 0
 195 598 200 561 200 507 c 0
 200 466 197 424 184 388 c 1
 185 388 l 1
 178 372 165 356 156 341 c 1
 198 308 203 242 205 195 c 2
 206 169 l 1
 206 155 l 2
 206 71 164 -11 70 -11 c 0
 58 -11 51 -1 51 10 c 1
90 121 m 1
 85 112 84 93 84 73 c 0
 84 55 85 38 85 28 c 1
 137 28 175 88 175 136 c 0
 175 141 187 326 92 326 c 1
 89 281 87 236 87 190 c 0
 87 168 86 142 90 121 c 1
89 374 m 1
 90 370 92 365 93 361 c 1
 100 361 l 2
 158 361 166 441 166 494 c 0
 166 518 164 535 163 556 c 1
 161 558 l 1
 159 587 150 641 111 641 c 0
 92 641 89 559 89 510 c 0
 89 474 90 472 90 456 c 0
 90 433 89 410 89 386 c 2
 89 374 l 1
EndSplineSet
EndChar

StartChar: c
Encoding: 99 99 63
Width: 269
Flags: W
LayerCount: 2
Fore
SplineSet
156 -16 m 1
 139 -7 122 -7 106 5 c 0
 51 45 47 144 47 218 c 2
 47 332 l 2
 47 406 47 591 110 641 c 0
 126 653 145 656 162 666 c 1
 202 666 l 1
 211 664 221 663 221 651 c 1
 208 636 l 1
 166 636 l 2
 94 636 87 459 87 409 c 1
 85 404 l 1
 85 337 81 269 81 202 c 0
 81 127 88 17 187 17 c 0
 196 17 205 20 212 26 c 1
 219 26 227 23 227 15 c 0
 227 3 199 -12 189 -16 c 1
 156 -16 l 1
EndSplineSet
EndChar

StartChar: d
Encoding: 100 100 64
Width: 319
Flags: W
LayerCount: 2
Fore
SplineSet
60 22 m 0
 57 80 56 138 56 196 c 0
 56 275 58 353 58 432 c 0
 58 494 57 557 54 620 c 1
 48 625 46 632 46 640 c 0
 46 650 60 662 70 662 c 0
 81 662 86 650 95 645 c 0
 108 638 128 640 142 633 c 0
 169 620 191 590 216 572 c 1
 215 570 l 1
 217 558 240 534 247 516 c 0
 261 478 263 431 263 397 c 0
 263 381 262 366 262 350 c 0
 262 335 260 315 267 302 c 1
 243 174 271 68 138 -5 c 1
 69 -5 l 2
 61 -5 60 17 60 22 c 0
101 37 m 1
 104 24 l 1
 135 24 l 1
 144 35 151 39 162 49 c 0
 219 101 233 205 233 289 c 0
 233 302 232 314 232 325 c 2
 227 426 l 2
 224 493 180 616 98 616 c 0
 90 616 87 534 87 431 c 0
 87 294 93 127 98 58 c 1
 97 39 l 1
 101 37 l 1
EndSplineSet
EndChar

StartChar: e
Encoding: 101 101 65
Width: 240
Flags: W
LayerCount: 2
Fore
SplineSet
54 33 m 1
 51 37 l 1
 56 50 58 63 58 78 c 0
 58 122 53 166 53 210 c 0
 53 310 60 410 60 511 c 0
 60 551 56 591 56 631 c 0
 56 649 63 659 85 659 c 0
 91 659 97 658 101 653 c 1
 118 648 191 647 193 624 c 0
 193 617 179 608 174 605 c 1
 150 613 117 623 93 624 c 1
 88 618 l 1
 89 604 89 589 89 575 c 0
 89 523 85 472 85 420 c 0
 85 406 87 392 99 392 c 0
 110 392 121 394 133 394 c 0
 144 394 171 393 172 376 c 0
 172 364 166 350 152 350 c 0
 145 350 133 353 129 358 c 1
 96 363 l 1
 92 363 l 1
 87 358 l 1
 87 355 l 1
 89 329 89 302 89 276 c 0
 89 229 87 181 87 134 c 0
 87 107 88 81 90 54 c 0
 92 22 103 16 133 16 c 0
 145 16 157 18 170 18 c 0
 179 18 199 18 199 5 c 0
 199 -13 169 -13 156 -13 c 2
 73 -13 l 2
 59 -13 54 -4 53 8 c 0
 53 16 54 25 54 33 c 1
EndSplineSet
EndChar

StartChar: f
Encoding: 102 102 66
Width: 257
Flags: W
LayerCount: 2
Fore
SplineSet
48 1 m 1
 56 82 57 163 57 244 c 0
 57 378 71 513 71 647 c 0
 71 660 87 666 98 666 c 0
 116 666 218 659 218 637 c 0
 218 622 193 620 182 620 c 1
 166 629 145 630 127 630 c 0
 104 630 113 627 104 609 c 1
 104 537 94 468 94 398 c 2
 94 363 l 2
 94 354 161 368 161 344 c 0
 161 332 147 325 137 325 c 0
 126 325 115 331 104 331 c 0
 86 331 86 294 86 282 c 2
 86 169 l 2
 86 121 92 74 92 26 c 0
 92 10 89 -14 68 -14 c 1
 48 1 l 1
54 495 m 1
 54 494 l 2
 54 493 54 493 53 493 c 0
 52 493 52 493 52 494 c 0
 52 495 52 495 53 495 c 2
 54 495 l 1
EndSplineSet
EndChar

StartChar: g
Encoding: 103 103 67
Width: 336
Flags: W
LayerCount: 2
Fore
SplineSet
45 304 m 0
 45 351 52 398 55 445 c 0
 61 531 64 662 181 662 c 0
 194 662 212 660 212 648 c 0
 212 638 200 633 192 633 c 0
 186 633 179 635 173 635 c 0
 82 635 82 370 82 307 c 0
 82 283 82 258 85 234 c 1
 116 187 65 22 188 22 c 0
 251 22 248 153 248 218 c 2
 248 255 l 1
 239 264 225 265 213 265 c 0
 209 265 202 264 194 264 c 0
 182 264 170 266 170 276 c 0
 170 290 183 293 194 293 c 0
 208 293 286 292 286 273 c 0
 286 248 275 223 275 198 c 0
 275 147 279 96 279 45 c 1
 252 18 217 -7 177 -7 c 0
 147 -7 106 -1 87 24 c 0
 59 60 45 252 45 304 c 0
EndSplineSet
EndChar

StartChar: h
Encoding: 104 104 68
Width: 296
Flags: W
LayerCount: 2
Fore
SplineSet
204 -1 m 1
 202 88 199 178 199 267 c 1
 197 271 l 2
 197 272 200 280 200 280 c 1
 200 292 199 305 197 317 c 1
 181 321 l 1
 175 319 168 318 161 318 c 0
 139 318 119 328 97 328 c 1
 87 324 l 1
 87 282 84 240 84 198 c 1
 87 194 l 1
 87 138 93 83 93 27 c 0
 93 17 89 1 76 1 c 0
 54 1 54 46 54 61 c 0
 54 122 56 183 56 244 c 0
 56 256 56 335 53 342 c 1
 58 352 58 396 58 408 c 0
 58 486 51 564 51 642 c 0
 51 651 58 661 68 661 c 0
 87 661 88 621 88 603 c 0
 88 522 84 437 84 359 c 0
 84 347 152 347 164 347 c 0
 188 347 200 354 200 380 c 0
 200 472 187 564 187 656 c 0
 187 665 196 671 204 671 c 0
 207 671 218 666 222 665 c 1
 222 509 235 354 235 198 c 0
 235 132 236 66 241 0 c 1
 235 -11 l 1
 234 -2 211 -1 204 -1 c 1
172 361 m 1
 174 359 l 1
 172 359 l 1
 172 361 l 1
EndSplineSet
EndChar

StartChar: i
Encoding: 105 105 69
Width: 269
Flags: W
LayerCount: 2
Fore
SplineSet
111 10 m 1
 105 10 99 9 94 9 c 0
 84 9 72 10 67 19 c 1
 67 28 74 29 80 36 c 1
 109 36 l 1
 113 40 l 1
 114 47 116 54 116 61 c 0
 116 134 109 207 109 280 c 0
 109 358 114 436 114 513 c 0
 114 552 113 591 109 629 c 1
 99 632 89 632 79 632 c 0
 71 632 63 630 55 630 c 0
 43 630 36 635 36 647 c 0
 36 654 54 659 60 659 c 0
 79 659 199 659 199 629 c 0
 199 626 198 623 197 621 c 1
 174 619 l 1
 166 625 155 625 145 625 c 1
 140 622 l 1
 143 613 143 589 143 569 c 0
 143 490 140 410 140 331 c 0
 140 258 147 185 147 112 c 0
 147 106 146 93 146 81 c 0
 146 68 147 56 149 53 c 1
 148 51 l 1
 148 41 163 41 170 41 c 0
 180 41 189 42 199 42 c 0
 209 42 229 42 229 28 c 0
 229 16 219 8 207 8 c 0
 196 8 185 11 174 11 c 0
 159 11 151 0 138 0 c 0
 129 0 115 0 111 10 c 1
EndSplineSet
EndChar

StartChar: j
Encoding: 106 106 70
Width: 280
Flags: W
LayerCount: 2
Fore
SplineSet
34 -96 m 0
 34 -88 100 -52 110 -41 c 0
 134 -14 142 49 142 84 c 0
 142 261 133 438 133 615 c 1
 127 626 l 1
 113 632 54 633 54 652 c 0
 54 658 70 664 75 664 c 0
 99 664 242 643 242 622 c 0
 242 613 234 609 226 609 c 0
 207 609 191 619 172 619 c 0
 163 619 163 604 163 599 c 0
 163 460 173 322 173 184 c 2
 173 74 l 1
 167 61 167 46 167 32 c 0
 167 -17 136 -123 65 -123 c 2
 58 -123 l 1
 35 -100 l 2
 35 -99 34 -97 34 -96 c 0
EndSplineSet
EndChar

StartChar: k
Encoding: 107 107 71
Width: 331
Flags: W
LayerCount: 2
Fore
SplineSet
136 388 m 1
 134 392 l 1
 112 345 86 307 86 253 c 0
 86 229 81 205 81 181 c 2
 81 53 l 2
 81 34 88 15 88 -4 c 0
 88 -12 79 -16 72 -16 c 0
 56 -16 50 -12 50 5 c 2
 50 193 l 2
 50 235 59 277 59 319 c 0
 59 383 69 448 69 512 c 2
 69 651 l 1
 73 659 80 662 88 662 c 0
 98 662 107 653 107 643 c 1
 98 627 98 612 98 595 c 0
 98 525 94 454 94 384 c 1
 113 392 233 656 247 656 c 0
 258 656 273 652 274 639 c 1
 229 573 201 526 167 454 c 1
 167 433 165 411 165 390 c 0
 165 327 227 115 258 57 c 0
 268 38 289 20 289 -3 c 0
 289 -13 281 -18 272 -18 c 0
 220 -18 139 327 136 388 c 1
EndSplineSet
EndChar

StartChar: l
Encoding: 108 108 72
Width: 243
Flags: W
LayerCount: 2
Fore
SplineSet
105 -9 m 1
 107 -10 l 1
 94 -10 83 -13 70 -13 c 0
 59 -13 54 1 53 10 c 1
 55 20 55 32 55 43 c 0
 55 223 61 412 61 576 c 0
 61 588 66 637 66 642 c 0
 66 647 69 649 73 649 c 0
 80 649 90 644 90 645 c 1
 90 618 89 593 89 566 c 0
 89 493 90 421 90 348 c 1
 89 314 87 284 87 264 c 0
 87 236 89 207 89 179 c 1
 86 171 l 1
 87 172 l 1
 87 169 86 167 86 164 c 0
 86 159 87 154 89 150 c 1
 86 54 l 2
 86 52 86 50 86 48 c 0
 86 27 87 23 92 23 c 1
 92 23 l 1
 118 23 172 20 186 20 c 0
 187 20 188 20 189 20 c 0
 196 20 204 11 204 3 c 0
 204 -3 200 -9 188 -10 c 1
 162 -9 133 -9 105 -9 c 1
EndSplineSet
EndChar

StartChar: m
Encoding: 109 109 73
Width: 515
Flags: W
LayerCount: 2
Fore
SplineSet
442 -52 m 0
 423 -52 422 -6 422 12 c 0
 422 110 423 207 416 303 c 0
 414 330 408 357 408 384 c 0
 408 425 412 467 412 508 c 0
 412 521 412 543 408 555 c 1
 388 539 301 187 288 134 c 0
 284 116 283 56 258 56 c 0
 235 56 228 68 228 89 c 0
 228 140 132 537 107 561 c 1
 99 385 85 210 85 34 c 0
 85 21 85 7 86 -6 c 1
 83 -15 74 -19 65 -19 c 0
 61 -19 48 -10 48 -5 c 0
 48 206 79 415 79 626 c 0
 79 633 73 638 73 645 c 0
 73 658 91 660 100 660 c 0
 127 660 122 620 125 603 c 0
 135 549 168 501 182 448 c 0
 193 406 207 365 215 323 c 1
 228 297 l 1
 238 245 256 193 257 140 c 1
 274 166 370 530 380 584 c 0
 384 604 387 658 416 658 c 0
 424 658 441 649 441 640 c 0
 441 583 441 221 454 199 c 1
 454 164 452 129 452 94 c 0
 452 62 453 29 460 -2 c 0
 461 -8 464 -13 464 -19 c 0
 464 -30 456 -52 442 -52 c 0
408 561 m 1
 407 561 l 1
 406 560 l 1
 408 559 l 1
 408 561 l 1
EndSplineSet
EndChar

StartChar: n
Encoding: 110 110 74
Width: 421
Flags: W
LayerCount: 2
Fore
SplineSet
229 204 m 1
 225 209 205 270 202 279 c 0
 188 323 112 558 89 580 c 1
 83 557 81 533 81 510 c 0
 81 483 83 457 83 431 c 0
 83 415 81 399 81 383 c 0
 81 360 84 336 85 313 c 1
 82 313 l 1
 82 286 83 144 89 129 c 1
 89 39 l 1
 93 32 93 26 93 18 c 0
 93 8 85 -2 74 -2 c 0
 54 -2 53 39 53 52 c 0
 53 74 57 95 57 117 c 0
 57 213 51 309 51 405 c 0
 51 464 57 523 57 582 c 0
 57 606 55 642 75 659 c 1
 78 656 l 1
 88 658 l 1
 100 653 101 643 104 632 c 0
 135 503 206 382 247 254 c 0
 267 191 274 119 308 61 c 1
 310 64 l 1
 329 245 333 427 333 609 c 0
 333 617 331 625 331 634 c 0
 331 643 333 655 345 655 c 0
 359 655 367 638 367 626 c 2
 367 559 l 1
 362 551 l 1
 362 488 346 35 330 3 c 1
 324 2 306 -4 302 -4 c 0
 285 -4 286 23 280 34 c 1
 281 37 l 1
 272 94 246 149 229 204 c 1
312 -1 m 2
 313 -1 313 -1 313 -2 c 2
 312 -1 l 2
EndSplineSet
EndChar

StartChar: o
Encoding: 111 111 75
Width: 329
Flags: W
LayerCount: 2
Fore
SplineSet
163 -19 m 0
 48 -19 46 257 46 349 c 0
 46 387 48 672 110 672 c 0
 122 672 123 663 132 660 c 0
 192 638 204 661 233 607 c 1
 266 551 275 455 275 391 c 1
 273 386 l 1
 273 346 275 307 275 267 c 0
 275 186 269 -19 163 -19 c 0
79 271 m 0
 79 232 88 10 159 10 c 0
 240 10 244 213 244 275 c 0
 244 354 233 432 233 511 c 1
 229 519 l 1
 231 524 l 1
 231 581 195 632 147 632 c 2
 105 632 l 2
 93 632 88 472 82 444 c 1
 82 413 77 381 77 350 c 0
 77 324 79 297 79 271 c 0
EndSplineSet
EndChar

StartChar: p
Encoding: 112 112 76
Width: 255
Flags: W
LayerCount: 2
Fore
SplineSet
63 -12 m 1
 54 35 52 84 52 132 c 0
 52 194 56 256 56 318 c 1
 53 325 50 333 50 341 c 1
 60 357 60 413 60 433 c 0
 60 463 59 614 54 627 c 1
 56 632 63 652 69 652 c 2
 113 652 l 2
 131 652 164 631 178 619 c 0
 202 597 203 532 203 501 c 0
 203 395 200 345 88 312 c 1
 88 193 l 2
 88 128 96 62 96 -2 c 0
 96 -14 90 -20 77 -20 c 1
 63 -12 l 1
92 450 m 0
 92 419 88 387 88 356 c 1
 94 346 l 1
 170 346 171 474 171 527 c 0
 171 572 166 621 109 621 c 0
 90 621 87 611 87 594 c 0
 87 546 92 498 92 450 c 0
EndSplineSet
EndChar

StartChar: q
Encoding: 113 113 77
Width: 336
Flags: W
LayerCount: 2
Fore
SplineSet
188 -196 m 1
 188 -141 175 -87 165 -33 c 1
 98 -20 67 4 57 111 c 0
 49 189 46 267 46 345 c 0
 46 415 45 662 145 668 c 1
 159 662 174 661 188 655 c 0
 278 613 282 484 282 399 c 2
 282 352 l 2
 282 286 265 14 212 -19 c 0
 206 -23 193 -25 193 -34 c 0
 193 -82 207 -131 217 -178 c 1
 230 -191 267 -175 267 -199 c 0
 267 -207 262 -212 254 -212 c 0
 238 -212 199 -208 188 -196 c 1
75 324 m 2
 75 281 l 2
 75 183 80 -7 153 -7 c 0
 163 -7 172 -1 182 -1 c 0
 226 -1 252 213 252 251 c 2
 252 426 l 2
 252 500 244 642 142 642 c 0
 77 642 72 392 72 343 c 0
 72 337 75 330 75 324 c 2
EndSplineSet
EndChar

StartChar: r
Encoding: 114 114 78
Width: 269
Flags: W
LayerCount: 2
Fore
SplineSet
201 -12 m 1
 163 30 135 346 104 346 c 2
 100 346 l 2
 90 346 78 345 78 332 c 0
 78 259 83 186 87 113 c 0
 88 90 89 28 95 8 c 1
 88 -9 l 1
 73 -9 l 1
 66 -1 l 1
 58 209 50 419 50 629 c 0
 50 645 51 667 72 667 c 0
 133 667 184 637 184 570 c 2
 184 497 l 2
 184 450 132 367 132 362 c 0
 132 358 206 50 211 38 c 0
 216 25 227 11 227 -3 c 0
 227 -10 224 -17 216 -17 c 0
 214 -17 204 -13 201 -12 c 1
82 373 m 1
 84 371 l 1
 138 371 157 496 157 536 c 0
 157 584 152 641 90 641 c 0
 81 641 78 621 78 615 c 0
 78 534 82 454 82 373 c 1
EndSplineSet
EndChar

StartChar: s
Encoding: 115 115 79
Width: 239
Flags: W
LayerCount: 2
Fore
SplineSet
44 12 m 1
 49 20 l 1
 61 19 73 13 85 13 c 0
 150 13 164 126 164 174 c 0
 164 318 44 388 44 536 c 0
 44 580 66 673 123 673 c 0
 136 673 161 660 161 645 c 0
 161 639 152 637 148 637 c 0
 140 637 135 643 127 643 c 0
 83 643 70 565 70 532 c 0
 70 499 80 470 89 439 c 1
 96 421 l 1
 150 323 190 282 190 162 c 0
 190 94 166 -10 81 -10 c 1
 76 -12 l 1
 64 -10 46 -2 44 12 c 1
155 641 m 1
 155 640 l 1
 156 640 l 1
 156 641 156 641 155 641 c 1
EndSplineSet
EndChar

StartChar: t
Encoding: 116 116 80
Width: 266
Flags: W
LayerCount: 2
Fore
SplineSet
148 14 m 1
 148 38 146 63 146 87 c 0
 146 99 148 110 148 122 c 0
 148 130 147 138 144 146 c 1
 144 309 121 471 119 634 c 1
 92 634 40 635 35 653 c 1
 38 661 46 664 54 664 c 0
 100 664 144 655 190 655 c 0
 196 655 202 656 208 656 c 0
 217 656 226 654 226 643 c 0
 226 633 213 627 204 627 c 0
 186 627 168 634 150 634 c 1
 145 628 l 1
 147 624 l 1
 145 620 145 616 145 612 c 0
 145 416 178 221 178 25 c 0
 178 15 169 6 159 6 c 1
 148 14 l 1
EndSplineSet
EndChar

StartChar: u
Encoding: 117 117 81
Width: 318
Flags: W
LayerCount: 2
Fore
SplineSet
153 -15 m 2
 154 -15 l 2
 131 -15 102 3 88 20 c 0
 45 74 60 536 47 644 c 1
 53 658 l 1
 76 655 76 620 76 603 c 2
 79 338 l 2
 79 267 90 197 90 126 c 0
 90 77 99 12 165 12 c 0
 216 12 220 166 225 242 c 1
 229 377 232 514 232 649 c 0
 232 655 230 661 230 667 c 0
 230 677 239 678 247 678 c 0
 263 678 264 673 264 637 c 0
 264 605 263 554 258 535 c 1
 259 533 259 531 259 529 c 0
 259 503 254 475 254 449 c 0
 254 442 255 436 255 429 c 0
 244 289 274 -15 153 -15 c 2
EndSplineSet
EndChar

StartChar: v
Encoding: 118 118 82
Width: 349
Flags: W
LayerCount: 2
Fore
SplineSet
153 -3 m 1
 153 72 141 149 129 223 c 0
 111 333 89 443 64 552 c 0
 60 570 37 645 37 655 c 0
 37 660 45 667 50 667 c 0
 74 667 83 583 88 565 c 0
 130 399 152 237 176 72 c 1
 194 132 203 205 210 270 c 0
 233 470 259 542 281 676 c 1
 294 681 l 1
 298 680 305 676 305 671 c 0
 305 645 295 611 290 585 c 0
 278 525 261 465 252 405 c 0
 242 343 239 279 231 217 c 0
 226 180 213 144 206 107 c 0
 201 79 206 -12 164 -12 c 1
 153 -3 l 1
175 69 m 1
 174 67 l 1
 175 65 l 1
 175 69 l 1
147 540 m 1
 147 538 l 1
 146 538 l 1
 146 539 146 540 147 540 c 1
EndSplineSet
EndChar

StartChar: w
Encoding: 119 119 83
Width: 414
Flags: W
LayerCount: 2
Fore
SplineSet
204 514 m 1
 201 473 194 433 194 392 c 0
 194 300 175 209 163 118 c 0
 160 98 151 -21 129 -21 c 0
 95 -21 96 167 86 254 c 0
 79 309 68 364 64 419 c 0
 59 488 62 575 38 640 c 1
 42 647 47 648 54 648 c 0
 77 648 73 587 74 572 c 0
 88 419 117 267 120 113 c 1
 126 97 124 72 131 59 c 1
 132 59 l 1
 149 179 168 300 172 422 c 0
 173 454 173 486 178 518 c 0
 181 539 185 559 185 580 c 1
 203 588 l 1
 211 588 220 583 220 574 c 0
 220 571 219 568 218 566 c 1
 249 461 263 352 271 243 c 0
 275 192 273 139 291 91 c 1
 311 147 320 413 320 486 c 0
 320 538 333 589 333 641 c 0
 333 647 332 653 329 658 c 1
 329 670 339 674 349 674 c 0
 359 674 363 673 363 662 c 0
 363 648 362 633 358 619 c 1
 360 613 l 1
 353 582 351 551 351 519 c 0
 351 515 351 511 353 508 c 1
 347 488 l 1
 350 481 l 1
 348 477 347 473 347 469 c 0
 347 462 349 456 350 450 c 1
 347 446 l 1
 347 389 342 331 338 274 c 0
 335 228 333 182 327 136 c 0
 324 116 316 96 316 76 c 0
 316 57 315 -33 289 -33 c 0
 271 -33 273 -1 272 11 c 0
 268 59 256 107 250 155 c 0
 243 208 226 492 204 514 c 1
291 87 m 1
 291 86 l 1
 292 86 l 1
 292 87 292 87 291 87 c 1
EndSplineSet
EndChar

StartChar: x
Encoding: 120 120 84
Width: 253
Flags: W
LayerCount: 2
Fore
SplineSet
53 9 m 0
 53 107 109 222 109 322 c 0
 109 354 60 593 46 609 c 1
 46 611 47 614 47 616 c 0
 47 628 38 633 38 642 c 0
 38 648 51 652 56 652 c 0
 77 652 78 591 78 588 c 2
 78 592 l 1
 101 530 105 462 124 399 c 1
 134 419 150 547 152 576 c 0
 153 587 158 657 165 659 c 0
 170 660 176 661 181 662 c 1
 190 650 l 1
 176 629 174 587 174 562 c 0
 174 558 175 554 175 550 c 1
 174 549 l 1
 166 471 137 394 137 315 c 0
 137 292 187 70 197 45 c 0
 201 36 209 26 209 16 c 0
 209 7 202 2 194 2 c 0
 190 2 185 3 181 5 c 1
 162 86 140 166 125 248 c 1
 104 217 102 82 85 34 c 1
 87 30 87 26 87 22 c 0
 87 13 84 -3 72 -3 c 0
 64 -3 53 -2 53 9 c 0
191 314 m 1
 191 313 l 1
 191 314 l 1
EndSplineSet
EndChar

StartChar: y
Encoding: 121 121 85
Width: 274
Flags: W
LayerCount: 2
Fore
SplineSet
136 -4 m 1
 145 18 146 140 146 171 c 0
 146 222 140 274 138 325 c 1
 132 338 l 1
 135 350 l 1
 117 399 38 602 37 638 c 1
 51 649 l 1
 74 645 126 401 145 396 c 1
 149 414 l 1
 147 419 l 1
 166 442 189 664 218 664 c 0
 224 664 231 661 231 654 c 0
 231 637 218 596 213 579 c 0
 192 505 164 426 164 353 c 1
 166 348 169 342 169 336 c 0
 169 326 163 318 163 307 c 0
 163 276 171 247 171 216 c 0
 171 163 172 110 172 57 c 0
 172 43 173 -15 151 -15 c 0
 146 -15 138 -8 136 -4 c 1
EndSplineSet
EndChar

StartChar: z
Encoding: 122 122 86
Width: 263
Flags: W
LayerCount: 2
Fore
SplineSet
41 13 m 0
 41 33 68 129 75 155 c 0
 89 208 98 262 111 315 c 0
 135 412 189 539 189 636 c 1
 158 636 126 630 95 630 c 0
 87 630 81 638 81 646 c 0
 81 659 156 662 192 662 c 0
 204 662 217 661 217 646 c 0
 217 584 168 482 168 447 c 1
 150 359 75 162 74 31 c 1
 84 29 93 29 103 29 c 0
 117 29 131 32 145 32 c 0
 154 32 174 32 174 19 c 0
 174 7 160 6 151 6 c 0
 131 6 112 9 92 9 c 0
 72 9 66 -2 56 -2 c 0
 46 -2 41 3 41 13 c 0
EndSplineSet
EndChar

StartChar: cent
Encoding: 162 162 87
Width: 318
Flags: W
LayerCount: 2
Fore
SplineSet
165 12 m 1
 163 11 l 1
 162 39 161 70 161 99 c 2
 161 126 l 1
 161 161 l 1
 117 178 68 198 59 250 c 1
 47 304 46 356 46 411 c 0
 46 476 56 569 126 607 c 1
 126 628 121 648 121 669 c 0
 121 676 121 701 134 701 c 1
 140 697 l 1
 139 688 139 680 139 671 c 0
 139 649 141 627 144 605 c 1
 162 597 233 585 233 554 c 0
 233 550 229 541 224 541 c 0
 209 541 207 558 198 566 c 1
 189 576 174 573 166 583 c 1
 148 583 l 1
 147 585 l 1
 147 457 177 338 177 210 c 0
 177 206 176 199 176 196 c 0
 176 191 178 185 184 180 c 1
 227 180 247 206 269 239 c 1
 279 239 280 228 280 221 c 0
 280 192 214 159 188 159 c 0
 185 159 182 159 179 159 c 1
 179 142 178 125 178 108 c 0
 178 76 181 45 181 13 c 0
 181 0 165 6 165 12 c 1
79 477 m 1
 75 445 71 417 71 385 c 0
 71 341 70 194 150 194 c 1
 154 196 l 1
 154 273 146 347 138 425 c 1
 135 473 133 524 122 567 c 1
 92 562 78 481 79 477 c 1
EndSplineSet
EndChar

StartChar: sterling
Encoding: 163 163 88
Width: 370
Flags: W
LayerCount: 2
Fore
SplineSet
40 24 m 0
 40 44 84 56 98 66 c 0
 125 86 133 153 133 185 c 0
 133 270 97 352 78 434 c 1
 76 434 75 433 73 433 c 0
 66 433 59 438 59 447 c 0
 59 455 63 461 72 461 c 1
 72 509 60 555 60 603 c 0
 60 639 70 784 119 784 c 2
 151 784 l 2
 182 784 221 710 221 683 c 1
 212 673 l 1
 196 673 196 685 189 696 c 1
 189 714 l 1
 181 723 184 747 169 747 c 1
 161 755 150 762 138 762 c 1
 130 759 l 1
 122 752 l 1
 99 752 85 640 85 619 c 2
 85 578 l 1
 98 546 85 464 101 464 c 0
 136 464 171 477 206 477 c 0
 213 477 220 472 220 464 c 0
 220 456 218 448 208 448 c 0
 172 448 136 446 101 439 c 1
 106 428 106 416 109 404 c 0
 111 396 117 384 117 377 c 0
 117 320 157 254 157 183 c 0
 157 138 142 111 130 70 c 1
 179 70 226 48 275 48 c 0
 292 48 303 49 319 56 c 1
 333 46 l 1
 333 24 301 24 286 24 c 0
 271 24 255 27 240 27 c 1
 237 25 l 1
 215 38 149 44 149 44 c 1
 109 44 89 33 55 13 c 1
 50 14 40 18 40 24 c 0
EndSplineSet
EndChar

StartChar: currency
Encoding: 164 164 89
Width: 424
Flags: W
LayerCount: 2
Fore
SplineSet
335 126 m 1
 328 138 322 151 314 163 c 1
 283 129 240 113 195 113 c 0
 162 113 128 135 107 159 c 1
 93 159 88 111 64 111 c 0
 47 111 44 121 44 136 c 0
 44 142 83 176 88 193 c 1
 71 221 71 257 71 289 c 0
 71 336 77 493 107 525 c 1
 107 545 59 579 59 592 c 0
 59 599 64 603 71 603 c 0
 96 603 107 571 123 557 c 1
 134 566 177 617 187 617 c 0
 230 617 260 605 295 581 c 1
 311 583 331 649 358 649 c 1
 372 634 l 1
 370 617 326 579 326 558 c 0
 326 551 340 513 343 504 c 0
 355 466 370 418 370 378 c 0
 370 338 361 298 351 259 c 0
 346 239 337 214 337 194 c 0
 337 160 375 137 375 121 c 0
 375 113 371 107 362 107 c 0
 349 107 335 110 335 126 c 1
128 201 m 1
 128 154 173 138 213 138 c 0
 316 138 335 305 335 381 c 0
 335 410 323 519 299 534 c 1
 287 534 280 546 280 557 c 1
 266 577 233 588 209 588 c 0
 191 588 146 552 144 534 c 1
 153 525 l 1
 153 493 137 511 130 500 c 0
 117 481 103 366 103 340 c 0
 103 334 104 328 105 322 c 1
 102 310 102 298 102 286 c 0
 102 256 104 223 128 201 c 1
EndSplineSet
EndChar

StartChar: yen
Encoding: 165 165 90
Width: 460
Flags: W
LayerCount: 2
Fore
SplineSet
207 20 m 1
 211 29 220 134 220 150 c 0
 220 226 228 302 228 378 c 0
 228 382 227 386 226 389 c 1
 184 389 143 387 101 384 c 1
 94 388 88 396 84 403 c 1
 88 416 l 1
 136 416 183 417 231 420 c 1
 233 435 233 451 233 466 c 0
 233 473 230 479 222 479 c 0
 198 479 174 475 150 475 c 0
 139 475 94 475 94 493 c 1
 101 504 l 1
 128 504 151 503 179 503 c 0
 197 503 228 504 233 510 c 1
 233 529 l 1
 204 546 93 791 36 838 c 1
 36 853 l 1
 39 854 46 857 49 857 c 0
 72 857 134 753 149 731 c 1
 150 719 183 674 191 660 c 0
 199 646 236 573 248 572 c 1
 259 594 266 617 273 640 c 0
 285 679 336 856 352 876 c 0
 357 882 360 884 368 884 c 0
 377 884 385 878 385 869 c 1
 349 785 332 694 300 608 c 1
 300 573 269 542 268 511 c 1
 276 507 284 505 293 505 c 0
 329 505 365 510 401 510 c 0
 408 510 416 494 419 489 c 1
 418 476 356 476 345 476 c 2
 268 476 l 1
 268 458 266 440 266 422 c 1
 377 422 l 2
 383 422 390 423 396 423 c 0
 407 423 417 420 417 401 c 0
 417 393 406 386 399 386 c 2
 395 386 l 1
 397 387 l 1
 392 388 385 391 379 391 c 2
 268 391 l 1
 264 389 l 1
 264 282 249 177 249 70 c 0
 249 61 250 52 250 44 c 0
 250 28 247 8 227 8 c 0
 219 8 207 9 207 20 c 1
EndSplineSet
EndChar

StartChar: dieresis
Encoding: 168 168 91
Width: 379
Flags: W
LayerCount: 2
Fore
SplineSet
279 500 m 0
 279 512 291 525 303 525 c 0
 314 525 325 511 325 501 c 0
 325 485 314 478 299 478 c 0
 288 478 279 490 279 500 c 0
54 499 m 0
 54 489 61 474 73 474 c 0
 83 474 98 479 98 491 c 0
 98 503 94 524 78 524 c 0
 66 524 54 510 54 499 c 0
EndSplineSet
EndChar

StartChar: copyright
Encoding: 169 169 92
Width: 565
Flags: W
LayerCount: 2
Fore
SplineSet
48 451 m 0
 48 581 73 873 252 873 c 0
 467 873 520 530 520 369 c 0
 520 203 484 1 276 1 c 0
 65 1 63 158 54 323 c 0
 52 366 48 408 48 451 c 0
83 459 m 0
 83 403 89 346 92 290 c 0
 99 171 107 28 263 28 c 0
 396 28 449 108 477 227 c 1
 476 229 476 230 476 232 c 0
 476 251 487 269 487 287 c 2
 487 436 l 2
 487 474 474 512 468 549 c 0
 452 649 415 759 328 819 c 0
 309 832 288 848 264 848 c 0
 104 848 83 574 83 459 c 0
209 152 m 1
 154 221 152 303 152 387 c 0
 152 474 151 721 279 721 c 0
 291 721 305 720 316 716 c 0
 333 710 385 641 385 623 c 0
 385 615 380 609 372 609 c 0
 341 609 337 689 283 689 c 0
 193 689 198 509 190 448 c 1
 192 444 l 1
 188 431 188 416 188 402 c 0
 188 344 186 242 222 194 c 1
 222 191 l 1
 238 173 257 151 291 151 c 0
 348 151 364 204 380 204 c 0
 392 204 395 192 395 182 c 0
 395 149 324 122 296 122 c 0
 260 122 240 138 209 152 c 1
EndSplineSet
EndChar

StartChar: guillemotleft
Encoding: 171 171 93
Width: 362
Flags: W
LayerCount: 2
Fore
SplineSet
226 -17 m 0
 212 -17 182 49 175 62 c 0
 156 98 40 321 40 341 c 0
 40 354 152 622 167 663 c 1
 167 664 l 1
 170 672 187 716 195 716 c 0
 204 716 214 712 215 702 c 1
 196 672 184 636 171 603 c 0
 148 544 126 484 104 424 c 0
 100 413 76 345 71 338 c 1
 74 286 246 12 246 -6 c 0
 246 -13 231 -17 226 -17 c 0
188 714 m 1
 187 714 l 1
 188 714 l 1
294 2 m 1
 273 33 256 78 237 118 c 2
 187 222 l 2
 180 237 171 253 165 268 c 0
 156 292 125 315 125 341 c 0
 125 369 218 561 234 609 c 0
 240 626 253 691 272 694 c 1
 285 684 l 1
 270 587 160 425 160 342 c 0
 160 330 296 57 314 26 c 1
 323 19 l 1
 322 13 316 0 309 0 c 0
 305 0 301 2 296 2 c 2
 294 2 l 1
EndSplineSet
EndChar

StartChar: registered
Encoding: 174 174 94
Width: 567
Flags: W
LayerCount: 2
Fore
SplineSet
50 349 m 0
 50 393 51 437 51 481 c 0
 51 646 72 935 296 935 c 0
 352 935 409 891 440 847 c 1
 464 839 457 812 473 797 c 1
 473 774 483 725 487 702 c 0
 499 620 520 530 520 449 c 2
 520 417 l 2
 520 311 520 71 444 -6 c 0
 402 -49 362 -81 298 -81 c 0
 65 -81 50 174 50 349 c 0
218 -41 m 1
 228 -45 243 -48 251 -48 c 1
 260 -52 l 1
 475 -52 487 184 487 345 c 0
 487 482 478 659 427 806 c 1
 434 814 l 1
 429 826 419 840 406 845 c 1
 378 874 346 906 303 906 c 0
 114 906 84 651 84 509 c 0
 84 440 91 370 91 301 c 0
 91 211 98 80 155 6 c 0
 178 -24 200 -23 218 -41 c 1
230 82 m 0
 218 82 206 89 206 102 c 0
 206 145 206 188 202 231 c 0
 199 264 189 297 189 330 c 2
 189 525 l 2
 189 587 177 645 177 710 c 0
 177 778 207 787 271 787 c 0
 365 787 375 693 375 620 c 0
 375 499 306 504 306 473 c 0
 306 454 396 142 398 142 c 1
 398 141 l 1
 400 134 413 101 413 97 c 0
 413 91 399 84 394 82 c 1
 359 82 334 236 325 266 c 0
 306 326 281 459 270 459 c 0
 254 459 245 446 227 446 c 1
 226 427 224 408 224 389 c 0
 224 293 246 199 246 103 c 0
 246 91 244 82 230 82 c 0
214 691 m 0
 214 652 216 476 231 476 c 0
 254 476 321 533 329 555 c 0
 336 576 338 599 338 621 c 0
 338 666 338 756 274 756 c 0
 220 756 214 742 214 691 c 0
EndSplineSet
EndChar

StartChar: acute
Encoding: 180 180 95
Width: 243
Flags: W
LayerCount: 2
Fore
SplineSet
48 654 m 0
 48 663 157 742 172 756 c 1
 182 756 194 752 194 740 c 0
 194 735 192 730 191 725 c 1
 144 704 105 672 66 639 c 1
 57 639 48 644 48 654 c 0
EndSplineSet
EndChar

StartChar: paragraph
Encoding: 182 182 96
Width: 458
Flags: W
LayerCount: 2
Fore
SplineSet
347 50 m 0
 347 225 356 399 356 574 c 0
 356 647 349 719 349 792 c 0
 349 803 350 813 350 824 c 0
 350 852 344 875 304 875 c 0
 293 875 293 832 293 824 c 0
 293 709 306 593 306 478 c 0
 306 328 296 178 287 28 c 1
 288 26 289 24 289 22 c 0
 289 13 277 7 270 7 c 0
 257 7 251 14 251 27 c 0
 251 175 272 322 272 470 c 0
 272 496 270 521 270 547 c 1
 186 547 l 1
 123 573 69 565 48 647 c 0
 45 658 48 668 42 678 c 1
 42 739 60 826 117 858 c 0
 140 871 167 873 191 883 c 0
 217 894 250 890 278 894 c 1
 283 903 293 904 302 904 c 0
 315 904 327 896 341 896 c 0
 349 896 356 896 364 898 c 1
 377 882 421 894 421 874 c 0
 421 863 410 860 401 860 c 0
 395 860 388 861 382 862 c 1
 382 760 389 659 389 557 c 0
 389 414 383 272 383 129 c 0
 383 92 389 54 389 17 c 0
 389 7 381 1 372 1 c 0
 348 1 347 33 347 50 c 0
73 710 m 0
 73 598 142 572 241 572 c 0
 267 572 270 578 270 592 c 0
 270 671 261 749 261 828 c 0
 261 837 262 847 262 856 c 1
 253 865 223 865 210 865 c 0
 132 865 73 783 73 710 c 0
EndSplineSet
EndChar

StartChar: cedilla
Encoding: 184 184 97
Width: 229
Flags: W
LayerCount: 2
Fore
SplineSet
76 -19 m 2
 76 -8 l 1
 105 -4 l 1
 102 -21 101 -38 101 -54 c 1
 158 -58 174 -106 174 -155 c 0
 174 -182 142 -234 98 -234 c 0
 83 -234 55 -226 55 -207 c 0
 55 -200 58 -197 66 -197 c 0
 78 -197 86 -207 98 -207 c 0
 115 -207 132 -182 132 -166 c 0
 132 -162 131 -158 130 -154 c 1
 131 -155 l 2
 130 -154 129 -153 129 -152 c 0
 129 -148 136 -145 138 -143 c 1
 138 -117 139 -106 122 -93 c 1
 113 -93 104 -96 95 -96 c 0
 82 -96 74 -86 68 -76 c 1
 76 -58 76 -39 76 -19 c 2
EndSplineSet
EndChar

StartChar: guillemotright
Encoding: 187 187 98
Width: 362
Flags: W
LayerCount: 2
Fore
SplineSet
68 2 m 1
 62 2 57 0 53 0 c 0
 46 0 40 13 39 19 c 1
 48 26 l 1
 66 58 202 330 202 342 c 0
 202 425 92 587 77 684 c 1
 90 694 l 1
 110 690 122 627 128 609 c 0
 144 561 237 370 237 341 c 0
 237 316 206 292 197 268 c 0
 191 252 182 237 175 222 c 2
 89 44 l 2
 82 30 76 14 68 2 c 1
174 714 m 1
 175 714 l 1
 174 714 l 1
322 341 m 0
 322 321 206 98 187 62 c 0
 180 49 150 -17 136 -17 c 0
 131 -17 116 -13 116 -6 c 0
 116 12 288 286 291 338 c 1
 286 345 262 413 258 424 c 0
 236 484 214 544 191 603 c 0
 178 636 166 672 147 702 c 1
 148 712 158 716 167 716 c 0
 175 716 192 672 195 664 c 1
 195 663 l 1
 210 622 322 354 322 341 c 0
EndSplineSet
EndChar

StartChar: AE
Encoding: 198 198 105
Width: 451
Flags: W
LayerCount: 2
Fore
SplineSet
239 -6 m 1
 245 33 247 72 247 112 c 0
 247 176 242 240 242 303 c 1
 237 310 l 1
 222 307 137 305 134 293 c 2
 84 102 l 2
 79 85 67 1 49 1 c 0
 44 1 41 9 41 13 c 0
 42 59 69 164 81 211 c 0
 121 369 164 525 212 680 c 0
 218 700 231 754 258 754 c 0
 283 754 309 759 335 759 c 0
 345 759 366 757 366 743 c 1
 360 731 l 1
 327 731 294 729 261 725 c 1
 261 676 268 626 268 576 c 0
 268 498 265 421 265 343 c 1
 270 337 l 1
 297 337 322 347 349 347 c 1
 363 330 l 1
 363 310 298 313 265 313 c 1
 265 234 269 155 269 75 c 0
 269 61 268 48 268 34 c 0
 268 29 268 17 277 17 c 0
 315 17 352 28 390 28 c 0
 397 28 412 25 412 15 c 0
 412 -9 293 1 276 -7 c 0
 267 -12 263 -19 253 -20 c 1
 239 -6 l 1
239 680 m 1
 227 665 144 355 141 324 c 1
 170 325 214 329 241 336 c 1
 242 412 245 487 245 563 c 0
 245 603 244 642 239 680 c 1
EndSplineSet
EndChar

StartChar: Eth
Encoding: 208 208 115
Width: 410
Flags: W
LayerCount: 2
Fore
SplineSet
128 -24 m 1
 127 -24 l 1
 127 81 123 191 118 294 c 0
 116 318 116 345 110 368 c 1
 89 368 69 362 49 362 c 0
 37 362 35 369 35 379 c 0
 35 400 106 397 106 397 c 1
 110 399 l 2
 110 400 111 403 111 404 c 0
 111 464 97 524 97 584 c 0
 97 644 89 703 89 763 c 0
 89 768 99 784 105 784 c 0
 193 784 274 676 311 606 c 1
 311 604 l 1
 346 505 358 414 358 317 c 0
 358 189 279 11 157 -43 c 1
 143 -36 136 -40 128 -24 c 1
152 220 m 1
 151 219 l 1
 151 147 161 75 161 3 c 1
 177 6 186 18 197 29 c 0
 261 92 322 210 322 301 c 0
 322 380 322 453 301 531 c 1
 281 628 224 721 125 751 c 1
 123 749 l 1
 123 702 132 422 147 401 c 1
 170 401 193 412 216 412 c 0
 228 412 236 398 237 388 c 1
 227 376 l 1
 200 376 172 375 145 369 c 1
 145 351 150 229 152 220 c 1
EndSplineSet
EndChar

StartChar: Oslash
Encoding: 216 216 122
Width: 294
Flags: W
LayerCount: 2
Fore
SplineSet
65 -129 m 1
 50 -117 l 1
 51 -79 61 -66 79 54 c 1
 79 66 72 78 70 90 c 0
 47 233 49 385 49 528 c 0
 49 583 49 766 122 766 c 0
 132 766 143 755 151 755 c 1
 155 757 l 1
 160 752 l 1
 174 793 177 837 186 878 c 1
 204 878 l 1
 203 849 l 1
 198 817 182 728 182 728 c 1
 182 717 190 707 197 699 c 1
 196 697 l 1
 198 686 206 676 211 667 c 1
 219 648 222 621 222 600 c 1
 220 599 l 1
 220 539 235 475 235 415 c 2
 235 409 l 1
 237 406 l 1
 237 343 240 280 240 217 c 0
 240 148 239 -10 141 -10 c 0
 123 -10 103 -5 92 10 c 1
 91 10 l 1
 87 -15 74 -85 65 -129 c 1
105 58 m 0
 105 25 117 11 149 11 c 0
 214 11 214 152 214 195 c 0
 214 291 212 610 178 678 c 1
 147 489 148 292 112 105 c 0
 109 89 105 73 105 58 c 0
79 344 m 1
 79 274 91 204 91 134 c 1
 102 148 137 543 143 599 c 0
 147 636 155 673 155 711 c 0
 155 728 138 739 123 739 c 0
 121 739 110 734 107 733 c 1
 101 735 l 1
 71 717 70 489 70 416 c 0
 70 394 69 366 79 344 c 1
EndSplineSet
EndChar

StartChar: oslash
Encoding: 248 248 149
Width: 276
Flags: W
LayerCount: 2
Fore
SplineSet
50 -107 m 1
 56 -48 68 -8 74 51 c 1
 74 62 69 73 67 84 c 0
 45 214 47 353 47 485 c 0
 47 529 47 675 114 675 c 0
 124 675 133 668 141 664 c 1
 144 666 l 1
 151 659 l 1
 155 675 164 739 173 777 c 1
 189 777 l 1
 189 768 l 2
 189 758 169 651 169 640 c 0
 169 630 177 621 182 613 c 1
 181 611 l 1
 183 601 191 593 195 584 c 0
 203 567 206 542 206 523 c 1
 204 522 l 1
 204 475 217 428 217 381 c 2
 217 376 l 1
 219 373 l 1
 219 315 222 258 222 200 c 0
 222 137 221 -7 131 -7 c 0
 115 -7 97 -3 87 11 c 1
 86 11 l 1
 86 15 72 -121 59 -121 c 0
 53 -121 50 -117 50 -107 c 1
98 54 m 0
 98 24 109 12 139 12 c 0
 198 12 198 140 198 180 c 0
 198 262 196 535 165 594 c 1
 137 430 116 139 105 98 c 0
 101 83 98 69 98 54 c 0
74 316 m 1
 74 252 86 188 86 124 c 1
 98 197 127 473 133 522 c 0
 137 556 144 590 144 625 c 0
 144 640 128 650 115 650 c 0
 113 650 103 646 100 645 c 1
 95 646 l 1
 68 632 67 443 67 382 c 0
 67 363 66 336 74 316 c 1
EndSplineSet
EndChar

StartChar: ydieresis
Encoding: 255 255 155
Width: 274
Flags: W
LayerCount: 2
Fore
SplineSet
219 748 m 0
 219 760 231 773 243 773 c 0
 254 773 265 759 265 749 c 0
 265 733 254 726 239 726 c 0
 228 726 219 738 219 748 c 0
-6 747 m 0
 -6 737 1 722 13 722 c 0
 23 722 38 727 38 739 c 0
 38 751 34 772 18 772 c 0
 6 772 -6 758 -6 747 c 0
136 -4 m 1
 145 18 146 140 146 171 c 0
 146 222 140 274 138 325 c 1
 132 338 l 1
 135 350 l 1
 117 399 38 602 37 638 c 1
 51 649 l 1
 74 645 126 401 145 396 c 1
 149 414 l 1
 147 419 l 1
 166 442 189 664 218 664 c 0
 224 664 231 661 231 654 c 0
 231 637 218 596 213 579 c 0
 192 505 164 426 164 353 c 1
 166 348 169 342 169 336 c 0
 169 326 163 318 163 307 c 0
 163 276 171 247 171 216 c 0
 171 163 172 110 172 57 c 0
 172 43 173 -15 151 -15 c 0
 146 -15 138 -8 136 -4 c 1
EndSplineSet
EndChar

StartChar: quoteright
Encoding: 257 8217 156
Width: 194
Flags: W
LayerCount: 2
Fore
SplineSet
47 602 m 1
 49 611 l 1
 69 630 101 653 101 684 c 1
 86 693 72 710 72 728 c 0
 72 747 93 759 110 759 c 0
 129 759 137 746 143 730 c 1
 141 727 l 1
 143 723 143 719 143 715 c 0
 143 683 99 595 63 594 c 1
 47 602 l 1
EndSplineSet
EndChar

StartChar: quoteleft
Encoding: 258 8216 157
Width: 193
Flags: W
LayerCount: 2
Fore
SplineSet
145 751 m 1
 143 742 l 1
 123 723 91 700 91 669 c 1
 106 660 120 643 120 625 c 0
 120 606 99 594 82 594 c 0
 63 594 55 607 49 623 c 1
 51 626 l 1
 49 630 49 634 49 638 c 0
 49 670 93 758 129 759 c 1
 145 751 l 1
EndSplineSet
EndChar

StartChar: fraction
Encoding: 259 8260 158
Width: 273
Flags: W
LayerCount: 2
Fore
SplineSet
234 735 m 0
 234 727 216 653 214 643 c 0
 178 477 139 313 101 146 c 2
 81 59 l 2
 76 38 73 -1 52 -3 c 1
 46 1 42 8 42 15 c 0
 42 63 64 131 77 189 c 0
 116 362 157 535 202 707 c 0
 204 713 211 748 219 748 c 0
 227 748 234 744 234 735 c 0
EndSplineSet
EndChar

StartChar: quotedblleft
Encoding: 260 8220 159
Width: 297
Flags: W
LayerCount: 2
Fore
SplineSet
145 751 m 1
 143 742 l 1
 123 723 91 700 91 669 c 1
 106 660 120 643 120 625 c 0
 120 606 99 594 82 594 c 0
 63 594 55 607 49 623 c 1
 51 626 l 1
 49 630 49 634 49 638 c 0
 49 670 93 758 129 759 c 1
 145 751 l 1
249 751 m 1
 247 742 l 1
 227 723 195 700 195 669 c 1
 210 660 224 643 224 625 c 0
 224 606 203 594 186 594 c 0
 167 594 159 607 153 623 c 1
 155 626 l 1
 153 630 153 634 153 638 c 0
 153 670 197 758 233 759 c 1
 249 751 l 1
EndSplineSet
EndChar

StartChar: guilsinglleft
Encoding: 261 8249 160
Width: 278
Flags: W
LayerCount: 2
Fore
SplineSet
210 2 m 1
 189 33 172 78 153 118 c 2
 103 222 l 2
 96 237 87 253 81 268 c 0
 72 292 41 315 41 341 c 0
 41 369 134 561 150 609 c 0
 156 626 169 691 188 694 c 1
 201 684 l 1
 186 587 76 425 76 342 c 0
 76 330 212 57 230 26 c 1
 239 19 l 1
 238 13 232 0 225 0 c 0
 221 0 217 2 212 2 c 2
 210 2 l 1
EndSplineSet
EndChar

StartChar: guilsinglright
Encoding: 262 8250 161
Width: 278
Flags: W
LayerCount: 2
Fore
SplineSet
68 2 m 1
 62 2 57 0 53 0 c 0
 46 0 40 13 39 19 c 1
 48 26 l 1
 66 58 202 330 202 342 c 0
 202 425 92 587 77 684 c 1
 90 694 l 1
 110 690 122 627 128 609 c 0
 144 561 237 370 237 341 c 0
 237 316 206 292 197 268 c 0
 191 252 182 237 175 222 c 2
 89 44 l 2
 82 30 76 14 68 2 c 1
EndSplineSet
EndChar

StartChar: quotesinglbase
Encoding: 263 8218 162
Width: 199
Flags: W
LayerCount: 2
Fore
SplineSet
49 -79 m 1
 51 -70 l 1
 71 -51 103 -28 103 3 c 1
 88 12 74 29 74 47 c 0
 74 66 95 78 112 78 c 0
 131 78 139 65 145 49 c 1
 143 46 l 1
 145 42 145 38 145 34 c 0
 145 2 101 -86 65 -87 c 1
 49 -79 l 1
EndSplineSet
EndChar

StartChar: quotedblbase
Encoding: 264 8222 163
Width: 311
Flags: W
LayerCount: 2
Fore
SplineSet
61 -85 m 1
 49 -77 l 1
 62 -47 105 -35 105 3 c 1
 90 12 76 29 76 47 c 0
 76 66 97 78 114 78 c 0
 134 78 147 59 147 40 c 0
 147 2 105 -85 61 -85 c 1
161 -79 m 1
 163 -70 l 1
 183 -51 215 -28 215 3 c 1
 200 12 186 29 186 47 c 0
 186 66 207 78 224 78 c 0
 244 78 257 59 257 40 c 0
 257 5 217 -86 177 -87 c 1
 161 -79 l 1
EndSplineSet
EndChar

StartChar: quotedblright
Encoding: 265 8221 164
Width: 314
Flags: W
LayerCount: 2
Fore
SplineSet
47 602 m 1
 49 611 l 1
 69 630 101 653 101 684 c 1
 86 693 72 710 72 728 c 0
 72 747 93 759 110 759 c 0
 129 759 137 746 143 730 c 1
 141 727 l 1
 143 723 143 719 143 715 c 0
 143 683 99 595 63 594 c 1
 47 602 l 1
167 602 m 1
 169 611 l 1
 189 630 221 653 221 684 c 1
 206 693 192 710 192 728 c 0
 192 747 213 759 230 759 c 0
 249 759 257 746 263 730 c 1
 261 727 l 1
 263 723 263 719 263 715 c 0
 263 683 219 595 183 594 c 1
 167 602 l 1
EndSplineSet
EndChar

StartChar: circumflex
Encoding: 266 710 165
Width: 234
Flags: W
LayerCount: 2
Fore
SplineSet
167 464 m 1
 154 472 l 1
 150 523 138 573 125 622 c 1
 116 596 85 514 83 492 c 1
 66 469 l 1
 48 482 l 1
 49 507 110 651 132 651 c 0
 145 651 146 640 146 630 c 0
 146 586 165 554 176 513 c 1
 175 507 l 1
 182 492 l 1
 181 487 l 1
 182 485 185 478 185 476 c 0
 185 468 173 465 167 464 c 1
EndSplineSet
EndChar

StartChar: tilde
Encoding: 267 732 166
Width: 319
Flags: W
LayerCount: 2
Fore
SplineSet
54 515 m 0
 54 553 73 586 115 586 c 1
 128 579 143 573 155 564 c 1
 163 548 180 525 200 525 c 0
 203 525 205 525 208 526 c 1
 215 524 l 1
 220 537 238 534 238 561 c 0
 238 568 233 573 232 580 c 1
 234 584 238 586 242 586 c 0
 259 586 265 566 265 552 c 0
 265 524 240 499 212 499 c 0
 173 499 146 531 123 558 c 1
 116 561 l 1
 98 561 l 1
 95 548 79 549 79 534 c 0
 79 527 82 520 84 513 c 1
 73 498 l 1
 65 498 54 506 54 515 c 0
EndSplineSet
EndChar

StartChar: breve
Encoding: 268 728 167
Width: 253
Flags: W
LayerCount: 2
Fore
SplineSet
53 537 m 1
 64 546 l 1
 81 545 70 487 99 466 c 2
 110 458 l 1
 135 458 l 2
 154 458 169 493 169 509 c 0
 169 514 168 518 168 523 c 0
 168 533 171 542 186 542 c 0
 193 542 201 536 201 528 c 0
 201 524 197 516 196 512 c 1
 198 505 l 1
 181 469 175 435 126 435 c 0
 70 435 53 491 53 537 c 1
EndSplineSet
EndChar

StartChar: ring
Encoding: 269 730 168
Width: 193
Flags: W
LayerCount: 2
Fore
SplineSet
39 569 m 0
 39 599 67 631 97 631 c 0
 123 631 152 598 152 573 c 0
 152 534 124 516 88 516 c 0
 61 516 39 543 39 569 c 0
62 574 m 0
 62 562 65 535 84 535 c 0
 98 535 126 547 126 563 c 0
 126 582 119 612 97 612 c 0
 81 612 62 592 62 574 c 0
EndSplineSet
EndChar

StartChar: hungarumlaut
Encoding: 270 733 169
Width: 597
Flags: HW
LayerCount: 2
Fore
SplineSet
69.5 24.5 m 1
 73.8385214008 42.7222222222 277.749027237 188.5 292.5 188.5 c 0
 294.143185268 188.5 303.527740026 181.397533081 303.527740026 173.53470609 c 0
 303.527740026 170.162920229 301.801996695 166.651310331 297 163.5 c 0
 284.564985379 155.339521655 170.548387097 75.6212121212 150 63.5 c 1
 123.340314136 50.6779661017 103.162790698 25.7717391304 74 19 c 1
 69.5 24.5 l 1
219.5 29.5 m 0
 219.5 45.1859756098 370.888429752 140.048780488 391.5 152 c 0
 398.5 156 440.5 181 447.5 181 c 0
 454.954545455 181 466.136363636 166.865384615 468 156.5 c 1
 416 127.5 l 1
 403.75708502 122.4375 379.588571429 110.011363636 362 100.5 c 0
 339.166666667 88.9034090909 238.898550725 22 225 22 c 0
 220.346153846 22 219.5 25.75 219.5 29.5 c 0
EndSplineSet
EndChar

StartChar: caron
Encoding: 271 711 170
Width: 231
Flags: W
LayerCount: 2
Fore
SplineSet
151 643 m 1
 164 651 l 1
 170 650 182 647 182 639 c 0
 182 637 179 630 178 628 c 1
 179 623 l 1
 172 608 l 1
 173 602 l 1
 162 561 143 529 143 485 c 0
 143 475 142 464 129 464 c 0
 107 464 46 608 45 633 c 1
 63 646 l 1
 80 623 l 1
 82 601 113 519 122 493 c 1
 135 542 147 592 151 643 c 1
EndSplineSet
EndChar

StartChar: OE
Encoding: 272 338 171
Width: 568
Flags: W
LayerCount: 2
Fore
SplineSet
348 5 m 1
 354 21 l 1
 330 18 307 5 283 5 c 0
 129 5 51 122 51 266 c 0
 51 334 46 403 46 471 c 0
 46 560 71 758 191 758 c 0
 236 758 303 754 335 719 c 1
 332 730 l 1
 347 751 l 1
 360 751 373 745 386 745 c 2
 460 745 l 2
 467 745 475 747 482 747 c 1
 487 744 497 735 497 729 c 0
 497 719 486 718 479 718 c 0
 440 718 400 722 361 722 c 1
 361 648 375 574 375 500 c 0
 375 483 373 465 373 448 c 0
 373 434 374 420 378 407 c 1
 417 406 l 2
 426 406 434 408 443 408 c 0
 453 408 461 404 467 396 c 1
 467 384 463 380 451 380 c 0
 436 380 421 383 406 383 c 0
 401 383 377 383 377 374 c 0
 377 255 384 136 384 17 c 1
 410 18 435 21 461 21 c 0
 473 21 530 21 530 2 c 1
 524 -7 l 1
 473 -7 423 -10 372 -10 c 0
 363 -10 349 -6 348 5 c 1
131 96 m 1
 165 59 208 35 259 35 c 0
 284 35 358 39 358 75 c 0
 358 238 344 400 344 563 c 0
 344 603 338 644 338 684 c 1
 310 721 252 731 208 731 c 0
 85 731 70 563 70 472 c 0
 70 448 71 424 71 401 c 0
 71 389 71 377 70 365 c 1
 72 362 l 1
 72 319 84 103 131 96 c 1
EndSplineSet
EndChar

StartChar: trademark
Encoding: 273 8482 172
Width: 525
Flags: W
LayerCount: 2
Fore
SplineSet
130 323 m 1
 131 327 131 331 131 336 c 0
 131 344 130 352 130 361 c 2
 130 366 l 1
 133 369 133 394 133 398 c 0
 133 405 133 423 130 429 c 1
 131 442 132 456 132 469 c 0
 132 506 128 544 128 581 c 0
 128 616 131 650 131 685 c 0
 131 692 131 728 126 733 c 1
 108 733 90 729 71 729 c 0
 65 729 43 729 43 739 c 2
 43 742 l 1
 50 754 l 1
 99 758 148 764 197 764 c 0
 206 764 215 762 224 762 c 1
 236 750 l 1
 236 735 219 733 199 733 c 0
 187 733 173 734 163 734 c 1
 160 730 l 1
 158 708 157 687 157 665 c 0
 157 585 164 505 164 425 c 0
 164 399 163 372 161 346 c 1
 162 343 165 337 165 334 c 0
 165 326 151 318 144 316 c 1
 130 323 l 1
245 337 m 0
 245 372 251 408 251 443 c 0
 251 547 251 651 260 755 c 1
 267 762 273 776 284 776 c 0
 290 776 297 769 301 765 c 1
 300 762 300 759 300 755 c 0
 300 704 336 627 346 573 c 0
 348 563 351 517 358 514 c 1
 389 587 408 666 427 743 c 0
 431 759 432 789 455 789 c 0
 463 789 471 784 471 775 c 0
 471 704 460 634 460 563 c 0
 460 503 467 444 467 384 c 0
 467 367 467 313 441 313 c 0
 432 313 426 314 426 325 c 0
 426 363 432 402 432 440 c 0
 432 487 427 535 427 582 c 0
 427 602 430 624 430 644 c 0
 430 648 430 651 428 654 c 1
 422 632 411 552 396 541 c 1
 391 531 390 519 390 508 c 1
 387 505 l 1
 388 503 l 1
 383 488 376 422 356 422 c 0
 322 422 334 497 322 519 c 1
 315 577 294 633 284 691 c 1
 277 600 277 529 277 428 c 0
 277 397 278 365 282 358 c 1
 282 330 284 313 257 313 c 0
 245 313 245 329 245 337 c 0
358 508 m 1
 359 508 l 1
 358 508 l 1
EndSplineSet
EndChar

StartChar: e_e
Encoding: 275 -1 173
Width: 442
Flags: W
LayerCount: 2
Fore
SplineSet
55 210 m 1
 53 210 l 1
 53 310 57 410 57 511 c 0
 57 551 53 591 53 631 c 0
 53 649 61 655 99 653 c 0
 115 652 177 650 187 647 c 1
 195 643 195 624 173 624 c 2
 92 624 l 1
 87 618 l 1
 88 604 88 589 88 575 c 0
 88 523 84 472 84 420 c 0
 84 406 85 392 88 392 c 2
 152 392 l 2
 157 392 170 391 170 376 c 0
 170 370 164 364 150 364 c 0
 143 364 131 364 127 363 c 1
 89 363 l 2
 87 363 85 360 85 355 c 0
 87 329 87 302 87 276 c 0
 87 229 85 181 85 134 c 0
 85 107 86 81 88 54 c 1
 88 22 89 16 92 16 c 0
 117 16 142 18 169 18 c 0
 178 18 198 18 198 5 c 0
 198 -13 168 -13 155 -13 c 2
 76 -16 l 2
 62 -16 57 -7 56 5 c 1
 56 62 55 138 55 210 c 1
254 103 m 0
 254 111 254 187 253 210 c 1
 253 310 260 410 260 511 c 0
 260 551 256 591 256 631 c 0
 256 649 263 659 285 659 c 0
 291 659 297 658 301 653 c 1
 318 648 391 647 393 624 c 0
 393 617 379 608 374 605 c 1
 350 613 317 623 293 624 c 1
 288 618 l 1
 289 604 289 589 289 575 c 0
 289 506 285 439 285 370 c 0
 285 356 287 342 299 342 c 0
 310 342 321 344 333 344 c 0
 344 344 371 343 372 326 c 0
 372 318 366 309 352 309 c 0
 345 309 333 309 329 308 c 1
 296 313 l 1
 292 313 l 1
 287 308 l 1
 287 305 l 1
 289 289 289 272 289 256 c 0
 289 216 287 175 287 135 c 0
 287 108 288 82 290 55 c 0
 292 23 303 17 333 17 c 0
 345 17 357 19 370 19 c 0
 379 19 399 19 399 6 c 0
 399 -12 369 -12 356 -12 c 2
 273 -12 l 2
 261 -12 257 -3 256 9 c 0
 254 39 254 73 254 103 c 0
EndSplineSet
Ligature2: "'liga' Standard Ligatures in Latin lookup 0-1" e e
EndChar

StartChar: l_l
Encoding: 276 -1 174
Width: 446
Flags: W
LayerCount: 2
Fore
SplineSet
101 -14 m 1
 99 -16 l 1
 88 -16 79 -16 68 -16 c 0
 57 -16 52 -2 51 7 c 1
 53 16 53 27 53 37 c 0
 53 181 57 324 57 468 c 0
 57 501 57 552 59 575 c 1
 59 588 61 644 61 645 c 0
 60 653 85 661 88 642 c 1
 88 515 86 380 86 263 c 0
 86 216 86 168 86 121 c 1
 85 88 85 49 85 16 c 1
 100 16 111 16 186 21 c 0
 192 22 207 20 207 5 c 0
 207 -7 195 -6 190 -8 c 1
 162 -11 131 -14 101 -14 c 1
294 -11 m 1
 292 -13 l 1
 281 -12 272 -12 261 -12 c 0
 250 -12 245 2 244 11 c 0
 243 20 243 31 243 41 c 0
 243 183 247 324 247 466 c 0
 247 499 247 550 249 573 c 1
 249 586 251 642 251 644 c 0
 251 657 280 644 280 644 c 1
 280 617 280 592 282 565 c 1
 282 463 279 355 279 261 c 0
 279 233 281 204 281 176 c 1
 278 168 l 1
 279 169 l 1
 279 166 278 164 278 161 c 0
 278 156 279 151 281 147 c 1
 278 20 l 1
 379 20 304 19 379 19 c 1
 387 20 405 18 405 -2 c 0
 405 -8 392 -11 386 -12 c 1
 357 -11 325 -11 294 -11 c 1
EndSplineSet
Ligature2: "'liga' Standard Ligatures in Latin lookup 0-1" l l
EndChar

StartChar: m_m
Encoding: 277 -1 175
Width: 881
Flags: W
LayerCount: 2
Fore
SplineSet
383 -12 m 1
 383 -11 l 1
 366 -11 365 13 365 22 c 0
 365 117 366 211 357 304 c 1
 357 331 356 358 356 385 c 0
 356 426 356 468 354 509 c 0
 354 529 354 562 350 580 c 1
 341 526 267 169 257 110 c 1
 253 98 252 57 230 57 c 0
 214 57 209 73 209 101 c 1
 196 184 113 528 98 571 c 1
 94 392 88 214 88 35 c 0
 88 22 88 8 89 -5 c 1
 86 -14 77 -18 68 -18 c 0
 64 -18 51 -9 51 -4 c 0
 51 207 68 416 68 627 c 0
 68 634 62 639 62 646 c 0
 62 659 80 661 89 661 c 0
 119 661 112 625 117 610 c 1
 124 574 144 504 153 449 c 1
 164 407 178 366 186 324 c 1
 202 255 l 2
 211 215 232 118 231 121 c 1
 238 161 305 528 315 583 c 1
 324 619 323 658 357 658 c 0
 365 658 381 650 381 609 c 0
 381 495 396 192 396 118 c 0
 396 88 397 57 401 28 c 1
 404 16 408 -12 383 -12 c 1
807 -11 m 1
 806 -13 l 1
 789 -13 788 11 788 20 c 0
 788 115 789 209 780 302 c 1
 780 329 779 356 779 383 c 0
 779 427 779 472 777 516 c 0
 777 536 777 569 773 587 c 1
 764 537 690 203 680 148 c 1
 676 136 675 95 653 95 c 0
 629 95 631 122 622 158 c 1
 602 226 533 525 522 579 c 1
 522 42 l 2
 522 29 522 15 523 2 c 1
 520 -7 511 -11 502 -11 c 0
 498 -11 485 -2 485 3 c 0
 485 208 492 411 492 616 c 0
 492 653 530 659 541 599 c 1
 549 565 572 500 582 449 c 0
 589 417 653 139 653 139 c 1
 660 179 729 539 739 593 c 1
 748 618 747 646 781 646 c 0
 789 646 805 638 805 597 c 0
 805 486 820 191 820 119 c 0
 820 89 821 58 825 29 c 1
 828 17 832 -11 807 -11 c 1
EndSplineSet
Ligature2: "'liga' Standard Ligatures in Latin lookup 0-1" m m
EndChar

StartChar: periodcentered
Encoding: 183 183 180
Width: 160
Flags: W
LayerCount: 2
Fore
SplineSet
55 364 m 0
 55 377 68 391 81 391 c 0
 93 391 105 376 105 365 c 0
 105 347 93 340 77 340 c 0
 65 340 55 353 55 364 c 0
EndSplineSet
EndChar

StartChar: dotaccentcmb
Encoding: 282 775 181
Width: 833
Flags: W
LayerCount: 2
Fore
SplineSet
55 587 m 0
 55 600 68 614 81 614 c 0
 93 614 105 599 105 588 c 0
 105 570 93 563 77 563 c 0
 65 563 55 576 55 587 c 0
EndSplineSet
EndChar

StartChar: dotaccent
Encoding: 283 729 182
Width: 833
Flags: W
LayerCount: 2
Fore
SplineSet
55 587 m 0
 55 600 68 614 81 614 c 0
 93 614 105 599 105 588 c 0
 105 570 93 563 77 563 c 0
 65 563 55 576 55 587 c 0
EndSplineSet
EndChar

StartChar: dotlessi
Encoding: 284 305 183
Width: 269
Flags: W
LayerCount: 2
Fore
SplineSet
111 10 m 1
 105 10 99 9 94 9 c 0
 84 9 72 10 67 19 c 1
 67 28 74 29 80 36 c 1
 109 36 l 1
 113 40 l 1
 114 47 116 54 116 61 c 0
 116 134 109 207 109 280 c 0
 109 358 114 436 114 513 c 0
 114 552 113 591 109 629 c 1
 99 632 89 632 79 632 c 0
 71 632 63 630 55 630 c 0
 43 630 36 635 36 647 c 0
 36 654 54 659 60 659 c 0
 79 659 199 659 199 629 c 0
 199 626 198 623 197 621 c 1
 174 619 l 1
 166 625 155 625 145 625 c 1
 140 622 l 1
 143 613 143 589 143 569 c 0
 143 490 140 410 140 331 c 0
 140 258 147 185 147 112 c 0
 147 106 146 93 146 81 c 0
 146 68 147 56 149 53 c 1
 148 51 l 1
 148 41 163 41 170 41 c 0
 180 41 189 42 199 42 c 0
 209 42 229 42 229 28 c 0
 229 16 219 8 207 8 c 0
 196 8 185 11 174 11 c 0
 159 11 151 0 138 0 c 0
 129 0 115 0 111 10 c 1
EndSplineSet
EndChar

StartChar: dotlessj
Encoding: 285 567 184
Width: 280
Flags: W
LayerCount: 2
Fore
SplineSet
34 -96 m 0
 34 -88 100 -52 110 -41 c 0
 134 -14 142 49 142 84 c 0
 142 261 133 438 133 615 c 1
 127 626 l 1
 113 632 54 633 54 652 c 0
 54 658 70 664 75 664 c 0
 99 664 242 643 242 622 c 0
 242 613 234 609 226 609 c 0
 207 609 191 619 172 619 c 0
 163 619 163 604 163 599 c 0
 163 460 173 322 173 184 c 2
 173 74 l 1
 167 61 167 46 167 32 c 0
 167 -17 136 -123 65 -123 c 2
 58 -123 l 1
 35 -100 l 2
 35 -99 34 -97 34 -96 c 0
EndSplineSet
EndChar

StartChar: Eng
Encoding: 290 330 189
Width: 377
Flags: W
LayerCount: 2
Fore
SplineSet
119 538 m 1
 121 543 l 1
 112 590 105 639 87 684 c 1
 86 674 84 665 84 655 c 0
 84 649 84 642 86 636 c 1
 80 616 79 588 79 567 c 2
 79 293 l 2
 79 197 93 104 93 8 c 1
 86 0 l 1
 63 0 l 1
 60 8 l 1
 62 16 62 39 62 48 c 0
 62 164 51 280 51 396 c 2
 51 527 l 2
 51 590 58 653 58 716 c 0
 58 723 57 730 57 737 c 0
 57 755 68 758 84 758 c 0
 93 758 107 749 107 739 c 0
 107 695 124 676 136 636 c 0
 146 603 145 568 152 535 c 0
 171 443 200 353 224 263 c 0
 231 235 240 180 249 153 c 0
 258 126 278 56 278 56 c 1
 278 56 282 107 282 121 c 0
 282 237 286 353 286 469 c 0
 286 521 283 572 283 624 c 0
 283 637 286 650 286 662 c 0
 286 665 286 673 283 675 c 1
 286 683 l 1
 286 706 l 2
 286 726 286 746 282 765 c 1
 285 775 297 779 307 779 c 0
 322 779 323 757 323 746 c 1
 318 736 317 724 317 713 c 0
 317 702 318 690 318 679 c 0
 318 669 318 658 314 649 c 1
 314 544 311 438 311 333 c 0
 311 324 312 315 313 306 c 1
 311 302 l 1
 311 176 l 2
 311 125 306 70 306 18 c 0
 306 -7 301 -29 301 -64 c 0
 301 -72 299 -87 296 -107 c 0
 288 -158 250 -203 216 -228 c 1
 203 -228 195 -222 195 -209 c 0
 196 -196 222 -185 231 -176 c 0
 271 -136 275 -65 275 -23 c 2
 275 -14 l 1
 271 -8 267 1 264 11 c 0
 217 159 158 343 130 496 c 0
 127 510 130 527 119 538 c 1
EndSplineSet
EndChar

StartChar: eng
Encoding: 291 331 190
Width: 421
Flags: W
LayerCount: 2
Fore
SplineSet
229 204 m 1
 224 209 202 278 202 279 c 0
 188 323 112 558 89 580 c 1
 83 557 81 533 81 510 c 0
 81 483 83 457 83 431 c 0
 83 415 81 399 81 383 c 0
 81 366 83 348 83 330 c 0
 83 324 82 319 82 313 c 0
 82 286 83 144 89 129 c 1
 89 39 l 1
 93 32 93 26 93 18 c 0
 93 8 85 -2 74 -2 c 0
 54 -2 53 39 53 52 c 0
 53 74 57 95 57 117 c 0
 57 213 51 309 51 405 c 0
 51 464 57 523 57 582 c 2
 57 588 l 2
 57 612 57 643 75 659 c 1
 78 656 l 1
 88 658 l 1
 100 653 101 643 104 632 c 0
 135 503 206 382 247 254 c 0
 267 191 274 119 308 61 c 1
 310 64 l 1
 329 245 333 427 333 609 c 0
 333 617 331 625 331 634 c 0
 331 643 333 655 345 655 c 0
 359 655 367 638 367 626 c 2
 367 559 l 1
 362 551 l 1
 362 489 333 59 330 6 c 1
 330 -26 l 2
 330 -85 307 -217 209 -217 c 1
 192 -200 l 2
 192 -199 191 -197 191 -196 c 0
 191 -188 226 -190 257 -164 c 0
 287 -138 296 -72 298 -32 c 1
 281 37 l 2
 267 93 246 149 229 204 c 1
EndSplineSet
EndChar

StartChar: ellipsis
Encoding: 295 8230 194
Width: 480
Flags: W
LayerCount: 2
Fore
SplineSet
55 20 m 0
 55 33 68 47 81 47 c 0
 93 47 105 32 105 21 c 0
 105 3 93 -4 77 -4 c 0
 65 -4 55 9 55 20 c 0
215 20 m 0
 215 33 228 47 241 47 c 0
 253 47 265 32 265 21 c 0
 265 3 253 -4 237 -4 c 0
 225 -4 215 9 215 20 c 0
375 20 m 0
 375 33 388 47 401 47 c 0
 413 47 425 32 425 21 c 0
 425 3 413 -4 397 -4 c 0
 385 -4 375 9 375 20 c 0
EndSplineSet
EndChar

StartChar: ae
Encoding: 230 230 195
Width: 451
Flags: W
LayerCount: 2
Fore
SplineSet
239 7 m 1
 245 40 247 78 247 112 c 0
 247 173 242 233 242 293 c 1
 237 300 l 1
 222 297 137 295 134 283 c 2
 84 102 l 2
 79 85 67 1 49 1 c 0
 44 1 41 9 41 13 c 0
 42 59 69 164 81 211 c 1
 121 339 164 459 212 584 c 1
 214 590 l 2
 214 591 215 593 215 594 c 0
 222 618 234 658 258 658 c 0
 283 658 309 659 335 659 c 0
 345 659 366 657 366 643 c 1
 360 631 l 1
 310 631 l 2
 293 631 277 631 261 629 c 1
 261 580 264 526 264 476 c 0
 264 426 265 383 265 333 c 1
 270 327 l 1
 297 337 322 337 349 337 c 1
 363 320 l 1
 363 305 325 303 292 303 c 2
 265 303 l 1
 265 227 269 152 269 75 c 0
 269 61 268 48 268 34 c 0
 268 29 268 17 277 17 c 0
 315 17 352 28 390 28 c 0
 397 28 412 25 412 15 c 0
 412 -9 293 1 276 -7 c 1
 273 -6 270 -6 268 -6 c 0
 263 -6 260 -7 253 -7 c 1
 239 7 l 1
241 604 m 1
 229 591 144 338 141 314 c 1
 170 314 214 320 241 326 c 1
 241 463 l 2
 241 485 242 508 242 530 c 2
 242 568 l 2
 242 580 242 592 241 604 c 1
EndSplineSet
EndChar

StartChar: uni0326
Encoding: 299 806 199
Width: 142
Flags: W
LayerCount: 2
Fore
SplineSet
23 -207 m 1
 25 -198 l 1
 45 -179 77 -156 77 -125 c 1
 62 -116 48 -99 48 -81 c 0
 48 -62 69 -50 86 -50 c 0
 105 -50 113 -63 119 -79 c 1
 117 -82 l 1
 119 -86 119 -90 119 -94 c 0
 119 -126 75 -214 39 -215 c 1
 23 -207 l 1
EndSplineSet
EndChar

StartChar: uni0111
Encoding: 301 273 201
Width: 319
Flags: HW
LayerCount: 2
Fore
SplineSet
149.5 318.299804688 m 0
 149.5 314.410915799 71.2325581395 311.299804688 43.5 311.299804688 c 0
 34.5 311.299804688 22.5 317.299804688 22.5 328.299804688 c 0
 22.5 332.188693576 102.324561404 335.299804688 127.5 335.299804688 c 0
 136.5 335.299804688 149.5 328.299804688 149.5 318.299804688 c 0
EndSplineSet
Refer: 64 100 N 1 0 0 1 0 0 2
EndChar

StartChar: uni021A
Encoding: 302 538 202
Width: 265
Flags: W
LayerCount: 2
Fore
SplineSet
134 34 m 0
 135 89 142 143 142 198 c 0
 142 304 128 411 128 518 c 0
 128 539 129 543 129 612 c 0
 129 660 126 715 112 715 c 0
 93 715 74 709 55 709 c 0
 46 709 34 715 34 726 c 0
 34 741 165 755 206 755 c 0
 215 755 227 748 227 738 c 0
 227 726 219 723 208 723 c 0
 197 723 182 726 171 726 c 0
 161 726 153 724 150 716 c 1
 155 674 157 630 157 586 c 0
 157 546 156 505 156 465 c 0
 156 413 155 349 170 295 c 1
 168 285 167 276 167 266 c 0
 167 189 172 108 172 33 c 0
 172 18 170 -6 155 -6 c 0
 140 -6 134 22 134 34 c 0
84 -207 m 1
 86 -198 l 1
 106 -179 138 -156 138 -125 c 1
 123 -116 109 -99 109 -81 c 0
 109 -62 130 -50 147 -50 c 0
 166 -50 174 -63 180 -79 c 1
 178 -82 l 1
 180 -86 180 -90 180 -94 c 0
 180 -126 136 -214 100 -215 c 1
 84 -207 l 1
EndSplineSet
EndChar

StartChar: uni021B
Encoding: 303 539 203
Width: 266
Flags: W
LayerCount: 2
Fore
SplineSet
148 14 m 1
 148 38 146 63 146 87 c 0
 146 99 148 110 148 122 c 0
 148 130 147 138 144 146 c 1
 144 309 121 471 119 634 c 1
 92 634 40 635 35 653 c 1
 38 661 46 664 54 664 c 0
 100 664 144 655 190 655 c 0
 196 655 202 656 208 656 c 0
 217 656 226 654 226 643 c 0
 226 633 213 627 204 627 c 0
 186 627 168 634 150 634 c 1
 145 628 l 1
 147 624 l 1
 145 620 145 616 145 612 c 0
 145 416 178 221 178 25 c 0
 178 15 169 6 159 6 c 1
 148 14 l 1
85 -207 m 1
 87 -198 l 1
 107 -179 139 -156 139 -125 c 1
 124 -116 110 -99 110 -81 c 0
 110 -62 131 -50 148 -50 c 0
 167 -50 175 -63 181 -79 c 1
 179 -82 l 1
 181 -86 181 -90 181 -94 c 0
 181 -126 137 -214 101 -215 c 1
 85 -207 l 1
EndSplineSet
EndChar

StartChar: uni030F
Encoding: 311 783 211
Width: 597
Flags: HW
LayerCount: 2
Fore
SplineSet
469.333007812 24.5 m 1
 464.995117188 42.72265625 261.083984375 188.5 246.333007812 188.5 c 0
 244.690429688 188.5 235.305664062 181.397460938 235.305664062 173.53515625 c 0
 235.305664062 170.163085938 237.03125 166.651367188 241.833007812 163.5 c 0
 254.268554688 155.33984375 368.28515625 75.62109375 388.833007812 63.5 c 1
 415.493164062 50.677734375 435.670898438 25.771484375 464.833007812 19 c 1
 469.333007812 24.5 l 1
319.333007812 29.5 m 0
 319.333007812 45.185546875 167.9453125 140.048828125 147.333007812 152 c 0
 140.333007812 156 98.3330078125 181 91.3330078125 181 c 0
 83.87890625 181 72.697265625 166.865234375 70.8330078125 156.5 c 1
 122.833007812 127.5 l 1
 135.076171875 122.4375 159.245117188 110.01171875 176.833007812 100.5 c 0
 199.666992188 88.9033203125 299.934570312 22 313.833007812 22 c 0
 318.487304688 22 319.333007812 25.75 319.333007812 29.5 c 0
EndSplineSet
EndChar

StartChar: ogonek
Encoding: 312 731 212
Width: 229
Flags: W
LayerCount: 2
Fore
SplineSet
124 -4 m 1
 153 -8 l 1
 164 -2 100 -67 100 -122 c 0
 100 -129 99 -138 98 -145 c 0
 98 -151 97 -158 97 -166 c 0
 97 -182 114 -207 131 -207 c 0
 143 -207 151 -197 163 -197 c 0
 171 -197 174 -200 174 -207 c 0
 174 -226 146 -234 131 -234 c 0
 87 -234 55 -182 55 -155 c 0
 55 -70 124 -4 124 -4 c 1
EndSplineSet
EndChar

StartChar: oe
Encoding: 313 339 213
Width: 569
Flags: W
LayerCount: 2
Fore
SplineSet
163 -19 m 0
 48 -19 46 257 46 349 c 0
 46 387 48 672 110 672 c 0
 122 672 123 663 132 660 c 0
 192 638 204 661 233 607 c 0
 239 597 244 585 249 573 c 1
 248 592 247 611 247 631 c 0
 247 649 254 659 276 659 c 0
 282 659 288 658 292 653 c 1
 309 648 382 647 384 624 c 0
 384 617 370 608 365 605 c 1
 341 613 308 623 284 624 c 1
 279 618 l 1
 280 604 280 589 280 575 c 0
 280 523 276 472 276 420 c 0
 276 406 278 392 290 392 c 0
 301 392 312 394 324 394 c 0
 335 394 362 393 363 376 c 0
 363 364 357 350 343 350 c 0
 336 350 324 353 320 358 c 1
 287 363 l 1
 283 363 l 1
 278 355 l 1
 280 329 280 302 280 276 c 0
 280 229 278 181 278 134 c 0
 278 107 279 81 281 54 c 0
 283 22 294 16 324 16 c 0
 336 16 348 18 361 18 c 0
 370 18 390 18 390 5 c 0
 390 -13 360 -13 347 -13 c 2
 264 -13 l 2
 250 -13 245 -4 244 8 c 0
 244 16 245 25 245 33 c 1
 242 37 l 1
 244 43 246 50 247 57 c 1
 231 13 205 -19 163 -19 c 0
79 271 m 0
 79 232 88 10 159 10 c 0
 240 10 244 213 244 275 c 0
 244 354 233 432 233 511 c 1
 229 519 l 1
 231 524 l 1
 231 581 195 632 147 632 c 2
 105 632 l 2
 93 632 88 472 82 444 c 1
 82 413 77 381 77 350 c 0
 77 324 79 297 79 271 c 0
EndSplineSet
EndChar

StartChar: kgreenlandic
Encoding: 327 312 227
Width: 331
Flags: W
LayerCount: 2
Fore
SplineSet
136 388 m 1
 134 392 l 1
 112 345 86 307 86 253 c 0
 86 229 81 205 81 181 c 2
 81 53 l 2
 81 34 88 15 88 -4 c 0
 88 -12 79 -16 72 -16 c 0
 56 -16 50 -12 50 5 c 2
 50 193 l 2
 50 235 59 277 59 319 c 0
 59 383 69 448 69 512 c 2
 69 651 l 1
 73 659 80 662 88 662 c 0
 98 662 107 653 107 643 c 1
 98 627 98 612 98 595 c 0
 98 525 94 454 94 384 c 1
 113 392 233 656 247 656 c 0
 258 656 273 652 274 639 c 1
 229 573 201 526 167 454 c 1
 167 433 165 411 165 390 c 0
 165 327 227 115 258 57 c 0
 268 38 289 20 289 -3 c 0
 289 -13 281 -18 272 -18 c 0
 220 -18 139 327 136 388 c 1
EndSplineSet
EndChar

StartChar: gcedilla
Encoding: 344 291 244
Width: 336
Flags: W
LayerCount: 2
Fore
SplineSet
45 304 m 0
 45 351 52 398 55 445 c 0
 61 531 64 662 181 662 c 0
 194 662 212 660 212 648 c 0
 212 638 200 633 192 633 c 0
 186 633 179 635 173 635 c 0
 82 635 82 370 82 307 c 0
 82 283 82 258 85 234 c 1
 116 187 65 22 188 22 c 0
 251 22 248 153 248 218 c 2
 248 255 l 1
 239 264 225 265 213 265 c 0
 209 265 202 264 194 264 c 0
 182 264 170 266 170 276 c 0
 170 290 183 293 194 293 c 0
 208 293 286 292 286 273 c 0
 286 248 275 223 275 198 c 0
 275 147 279 96 279 45 c 1
 252 18 217 -7 177 -7 c 0
 147 -7 106 -1 87 24 c 0
 59 60 45 252 45 304 c 0
120 -207 m 1
 122 -198 l 1
 142 -179 174 -156 174 -125 c 1
 159 -116 145 -99 145 -81 c 0
 145 -62 166 -50 183 -50 c 0
 202 -50 210 -63 216 -79 c 1
 214 -82 l 1
 216 -86 216 -90 216 -94 c 0
 216 -126 172 -214 136 -215 c 1
 120 -207 l 1
EndSplineSet
EndChar

StartChar: germandbls
Encoding: 223 223 250
Width: 301
Flags: W
LayerCount: 2
Fore
SplineSet
74 -6 m 0
 69 -6 55 -6 55 8 c 0
 55 92 60 177 60 261 c 0
 60 382 53 497 53 618 c 0
 53 647 53 750 129 750 c 0
 182 750 209 681 209 593 c 0
 209 527 190 460 145 417 c 1
 208 385 241 316 241 231 c 2
 241 208 l 2
 241 128 236 55 154 13 c 0
 151 12 148 11 145 11 c 0
 141 11 136 12 133 14 c 0
 127 17 124 22 124 26 c 0
 124 32 129 38 136 43 c 1
 152 51 194 77 199 96 c 1
 213 123 213 154 213 181 c 0
 213 253 196 364 125 396 c 0
 117 400 109 410 109 419 c 0
 109 431 118 432 124 434 c 0
 154 443 183 533 183 581 c 0
 183 662 159 716 130 716 c 0
 89 716 84 654 84 613 c 0
 84 553 88 493 88 433 c 2
 88 395 l 2
 88 271 93 147 93 24 c 0
 93 10 91 -6 74 -6 c 0
EndSplineSet
EndChar

StartChar: uni00AD
Encoding: 173 173 254
Width: 303
Flags: W
LayerCount: 2
Fore
SplineSet
248 361 m 0
 248 356 121 352 76 352 c 0
 67 352 55 358 55 369 c 0
 55 374 185 378 226 378 c 0
 235 378 248 371 248 361 c 0
EndSplineSet
EndChar

StartChar: minus
Encoding: 355 8722 257
Width: 303
Flags: W
LayerCount: 2
Fore
SplineSet
298 361 m 0
 298 356 136 352 76 352 c 0
 67 352 55 358 55 369 c 0
 55 374 225 378 276 378 c 0
 285 378 298 371 298 361 c 0
EndSplineSet
EndChar

StartChar: plusminus
Encoding: 177 177 258
Width: 303
Flags: W
LayerCount: 2
Fore
SplineSet
264 115 m 0
 264 110 137 106 92 106 c 0
 83 106 71 112 71 123 c 0
 71 128 201 132 242 132 c 0
 251 132 264 125 264 115 c 0
154 188 m 2
 154 219 l 2
 154 236 156 253 156 271 c 0
 156 296 156 304 122 304 c 0
 107 304 93 299 78 299 c 0
 63 299 49 303 49 320 c 0
 49 329 50 334 60 334 c 0
 78 334 95 331 113 331 c 0
 119 331 154 331 154 339 c 0
 154 372 149 406 149 439 c 0
 149 454 153 461 169 461 c 0
 180 461 187 455 187 444 c 1
 183 434 l 1
 183 408 187 381 187 355 c 0
 187 335 197 331 215 331 c 0
 235 331 255 334 275 334 c 0
 287 334 306 332 306 316 c 0
 306 305 299 300 289 300 c 0
 269 300 249 303 228 303 c 0
 198 303 187 304 187 270 c 0
 187 236 196 218 196 190 c 0
 196 179 185 174 175 174 c 0
 168 174 154 180 154 188 c 2
EndSplineSet
EndChar

StartChar: quotedbl
Encoding: 34 34 260
Width: 311
Flags: W
LayerCount: 2
Fore
SplineSet
101 616 m 1
 103 630 103 652 103 676 c 2
 103 684 l 2
 103 727 104 769 114 769 c 0
 128 769 137 750 137 731 c 0
 137 699 118 614 105 614 c 0
 104 614 102 615 101 616 c 1
217 614 m 0
 206 631 204 660 204 688 c 0
 204 735 204 769 224 769 c 0
 232 769 237 750 237 731 c 0
 237 701 227 613 220 613 c 0
 219 613 218 613 217 614 c 0
EndSplineSet
EndChar

StartChar: quotesingle
Encoding: 39 39 261
Width: 311
Flags: W
LayerCount: 2
Fore
SplineSet
101 616 m 1
 103 630 103 652 103 676 c 2
 103 684 l 2
 103 727 104 769 114 769 c 0
 128 769 137 750 137 731 c 0
 137 699 118 614 105 614 c 0
 104 614 102 615 101 616 c 1
EndSplineSet
EndChar

StartChar: multiply
Encoding: 215 215 264
Width: 355
Flags: W
LayerCount: 2
Fore
SplineSet
252 210 m 2
 230 231 l 2
 211 249 185 285 172 285 c 0
 147 285 127 223 98 223 c 0
 91 223 78 231 78 238 c 0
 78 248 111 271 123 283 c 0
 128 288 145 308 145 316 c 1
 121 341 62 381 62 399 c 0
 62 405 72 419 82 419 c 0
 86 419 90 418 94 414 c 1
 99 404 l 1
 120 383 162 342 174 342 c 0
 198 342 230 412 259 412 c 0
 266 412 274 404 274 397 c 0
 274 375 203 334 203 314 c 0
 203 286 284 254 284 230 c 0
 284 220 275 207 259 207 c 0
 256 207 254 208 252 210 c 2
EndSplineSet
EndChar

StartChar: Lslash
Encoding: 360 321 267
Width: 232
Flags: W
LayerCount: 2
Fore
SplineSet
62 10 m 0
 62 19 68 35 68 55 c 0
 68 149 58 244 58 339 c 0
 58 478 48 618 48 757 c 0
 48 765 54 767 61 767 c 0
 72 767 80 760 80 749 c 0
 80 658 80 568 84 477 c 0
 85 443 90 410 90 376 c 0
 90 364 89 353 88 341 c 1
 91 337 l 1
 90 324 89 311 89 298 c 0
 89 222 98 147 100 71 c 1
 96 65 96 58 96 51 c 0
 96 32 101 27 119 27 c 0
 126 27 136 27 141 33 c 1
 178 33 l 1
 184 28 192 24 192 15 c 0
 192 7 187 -2 178 -2 c 0
 174 -2 167 1 163 2 c 1
 158 0 149 0 143 0 c 0
 133 0 122 1 112 1 c 0
 101 1 95 -11 84 -11 c 0
 74 -11 62 -1 62 10 c 0
213 361 m 0
 213 346 86 332 41 332 c 0
 32 332 20 338 20 349 c 0
 20 364 150 378 191 378 c 0
 200 378 213 371 213 361 c 0
EndSplineSet
EndChar

StartChar: Hbar
Encoding: 368 294 275
Width: 294
Flags: HW
LayerCount: 2
Fore
SplineSet
235 591.799804688 m 1
 240.317376916 592.977719291 99.4735515021 589.993352151 47 588.799804688 c 1
 38 588.799804688 26 594.799804688 26 605.799804688 c 0
 26 608.577582465 173.485380117 610.799804688 220 610.799804688 c 0
 226.136363636 610.799804688 235 602.976275276 235 591.799804688 c 1
222 -16 m 0
 209 -16 208 -3 208 6 c 0
 208 14 209 21 209 29 c 0
 209 143 205 258 199 372 c 1
 197 372 195 371 193 371 c 0
 181 371 167 376 155 376 c 0
 131 376 105 376 84 364 c 1
 84 248 101 134 101 18 c 0
 101 10 101 3 91 3 c 0
 82 3 78 4 75 13 c 0
 65 42 68 241 64 292 c 0
 53 444 46 596 46 748 c 1
 62 756 l 1
 75 745 l 1
 72 720 71 696 71 671 c 0
 71 603 79 536 79 468 c 0
 79 455 78 441 78 428 c 0
 78 416 79 404 82 393 c 1
 121 393 160 401 199 401 c 1
 200 403 l 1
 200 516 191 629 191 742 c 0
 191 747 192 751 193 756 c 1
 219 756 221 714 221 675 c 0
 221 366 236 143 236 24 c 1
 238 20 240 15 240 10 c 0
 240 2 232 -16 222 -16 c 0
EndSplineSet
EndChar

StartChar: eth
Encoding: 240 240 276
Width: 252
Flags: W
LayerCount: 2
Fore
SplineSet
236 641 m 2
 236 640 217 636 193 633 c 1
 209 545 210 439 210 398 c 2
 210 394 l 2
 210 322 208 251 205 180 c 1
 197 126 209 -14 127 -14 c 0
 66 -14 58 34 58 83 c 0
 58 163 59 446 162 446 c 0
 169 446 178 442 184 438 c 1
 183 469 179 557 168 629 c 1
 140 626 112 623 96 623 c 0
 93 623 91 625 91 627 c 0
 91 630 91 641 102 641 c 0
 124 641 145 643 166 646 c 1
 159 687 149 720 136 731 c 0
 127 739 102 743 102 757 c 0
 102 762 110 766 114 766 c 0
 154 766 177 714 191 649 c 1
 204 650 217 651 231 651 c 0
 236 651 237 649 237 646 c 0
 237 644 236 641 236 641 c 2
184 355 m 2
 184 412 l 1
 184 412 174 420 154 424 c 1
 86 424 82 142 82 85 c 0
 82 60 83 6 119 6 c 0
 166 6 164 49 168 81 c 0
 179 172 184 263 184 355 c 2
EndSplineSet
EndChar

StartChar: Euro
Encoding: 369 8364 277
Width: 296
Flags: W
LayerCount: 2
Fore
SplineSet
157 -7 m 0
 152 -7 130 3 125 6 c 0
 75 37 57 313 52 378 c 1
 56 382 l 1
 55 453 l 1
 49 461 49 488 49 506 c 0
 49 559 50 613 50 666 c 1
 71 704 50 753 121 753 c 0
 131 753 145 745 154 740 c 0
 213 704 213 639 221 578 c 0
 236 466 253 353 253 240 c 0
 253 177 248 -7 157 -7 c 0
86 374 m 0
 86 314 84 16 166 16 c 0
 225 16 229 213 229 256 c 0
 229 320 221 466 198 523 c 1
 198 566 l 1
 171 633 213 719 106 731 c 1
 73 704 72 690 72 649 c 0
 72 587 76 524 76 462 c 0
 76 432 86 404 86 374 c 0
EndSplineSet
EndChar

StartChar: exclamdown
Encoding: 161 161 278
Width: 161
Flags: W
LayerCount: 2
Fore
SplineSet
43 724 m 1
 61 760 74 744 78 756 c 1
 94 755 103 746 103 730 c 0
 103 711 94 693 73 693 c 0
 60 693 43 711 43 724 c 1
71 342 m 2
 71 582 l 2
 71 583 72 585 72 586 c 1
 85 586 l 1
 82 581 l 1
 88 567 90 544 90 522 c 0
 90 506 89 490 89 478 c 0
 89 318 110 160 110 0 c 0
 110 -8 105 -13 97 -13 c 0
 84 -13 66 0 66 14 c 0
 66 66 73 117 73 171 c 0
 73 228 71 285 71 342 c 2
EndSplineSet
EndChar

StartChar: section
Encoding: 167 167 291
Width: 239
Flags: W
LayerCount: 2
Fore
SplineSet
190 262 m 0
 190 235 184 201 167 173 c 1
 176 154 182 133 182 109 c 0
 182 65 160 -28 103 -28 c 0
 90 -28 65 -15 65 0 c 0
 65 6 74 8 78 8 c 0
 86 8 91 2 99 2 c 0
 143 2 156 66 156 93 c 0
 156 116 151 140 140 162 c 0
 87 267 36 294 36 383 c 0
 36 408 41 442 58 469 c 1
 49 489 44 511 44 536 c 0
 44 580 66 673 123 673 c 0
 136 673 161 660 161 645 c 0
 161 639 152 637 148 637 c 0
 140 637 135 643 127 643 c 0
 83 643 70 565 70 532 c 0
 70 509 75 485 87 463 c 0
 139 368 190 343 190 262 c 0
164 254 m 0
 164 329 109 379 74 438 c 1
 64 414 62 387 62 371 c 0
 62 297 115 249 151 191 c 1
 161 214 164 237 164 254 c 0
EndSplineSet
EndChar

StartChar: Scommaaccent
Encoding: 382 536 292
Width: 278
Flags: W
LayerCount: 2
Fore
SplineSet
39 3 m 1
 39 10 41 15 50 15 c 0
 70 15 86 0 105 0 c 0
 171 0 194 116 194 166 c 0
 194 352 51 452 51 629 c 0
 51 687 82 768 151 768 c 0
 163 768 192 755 197 743 c 1
 191 732 l 1
 178 732 168 732 158 742 c 1
 107 742 85 679 85 637 c 0
 85 525 141 433 193 338 c 0
 193 337 192 335 192 334 c 0
 192 329 212 267 215 257 c 0
 223 226 230 194 230 161 c 0
 230 89 192 -22 105 -22 c 0
 81 -22 52 -21 39 3 c 1
91 -207 m 1
 93 -198 l 1
 113 -179 145 -156 145 -125 c 1
 130 -116 116 -99 116 -81 c 0
 116 -62 137 -50 154 -50 c 0
 173 -50 181 -63 187 -79 c 1
 185 -82 l 1
 187 -86 187 -90 187 -94 c 0
 187 -126 143 -214 107 -215 c 1
 91 -207 l 1
EndSplineSet
EndChar

StartChar: scommaaccent
Encoding: 383 537 293
Width: 239
Flags: W
LayerCount: 2
Fore
SplineSet
44 12 m 1
 49 20 l 1
 61 19 73 13 85 13 c 0
 150 13 164 126 164 174 c 0
 164 318 44 388 44 536 c 0
 44 580 66 673 123 673 c 0
 136 673 161 660 161 645 c 0
 161 639 152 637 148 637 c 0
 140 637 135 643 127 643 c 0
 83 643 70 565 70 532 c 0
 70 499 80 470 89 439 c 1
 96 421 l 1
 150 323 190 282 190 162 c 0
 190 94 166 -10 81 -10 c 1
 76 -12 l 1
 64 -10 46 -2 44 12 c 1
155 641 m 1
 155 640 l 1
 156 640 l 1
 156 641 156 641 155 641 c 1
71 -207 m 1
 73 -198 l 1
 93 -179 125 -156 125 -125 c 1
 110 -116 96 -99 96 -81 c 0
 96 -62 117 -50 134 -50 c 0
 153 -50 161 -63 167 -79 c 1
 165 -82 l 1
 167 -86 167 -90 167 -94 c 0
 167 -126 123 -214 87 -215 c 1
 71 -207 l 1
EndSplineSet
EndChar

StartChar: Tbar
Encoding: 388 358 298
Width: 265
Flags: HW
LayerCount: 2
Fore
SplineSet
134 34 m 0
 135 89 142 143 142 198 c 0
 142 244.696969296 139.282974619 291.588011833 136.242826702 338.587631081 c 1
 112.437142468 336.329860598 90.0513928972 335 76 335 c 0
 67 335 55 339.941176471 55 349 c 0
 55 355.435196472 93.0386223403 361.638327077 134.452858359 365.977485096 c 1
 131.144428735 416.580694163 128 467.290347081 128 518 c 0
 128 539 129 543 129 612 c 0
 129 660 126 715 112 715 c 0
 93 715 74 709 55 709 c 0
 46 709 34 715 34 726 c 0
 34 741 165 755 206 755 c 0
 215 755 227 748 227 738 c 0
 227 726 219 723 208 723 c 0
 197 723 182 726 171 726 c 0
 161 726 153 724 150 716 c 1
 155 674 157 630 157 586 c 0
 157 546 156 505 156 465 c 0
 156 435.29490346 155.673671316 401.673862717 158.190083677 368.238026831 c 1
 185.48785401 370.590582627 211.39253918 372 226 372 c 0
 232.136363636 372 241 367.470588235 241 361 c 0
 241 353.428105189 202.377965789 346.14042818 160.920104582 341.217300693 c 1
 162.977596497 325.362108163 165.887442562 309.805206777 170 295 c 1
 168 285 167 276 167 266 c 0
 167 189 172 108 172 33 c 0
 172 18 170 -6 155 -6 c 0
 140 -6 134 22 134 34 c 0
EndSplineSet
EndChar

StartChar: tbar
Encoding: 389 359 299
Width: 266
Flags: W
LayerCount: 2
Fore
SplineSet
148 14 m 1
 148 38 146 63 146 87 c 0
 146 99 148 110 148 122 c 0
 148 130 147 138 144 146 c 1
 144 309 121 471 119 634 c 1
 92 634 40 635 35 653 c 1
 38 661 46 664 54 664 c 0
 100 664 144 655 190 655 c 0
 196 655 202 656 208 656 c 0
 217 656 226 654 226 643 c 0
 226 633 213 627 204 627 c 0
 186 627 168 634 150 634 c 1
 145 628 l 1
 147 624 l 1
 145 620 145 616 145 612 c 0
 145 416 178 221 178 25 c 0
 178 15 169 6 159 6 c 1
 148 14 l 1
248 361 m 4
 248 346 121 332 76 332 c 4
 67 332 55 338 55 349 c 4
 55 364 185 378 226 378 c 4
 235 378 248 371 248 361 c 4
EndSplineSet
EndChar

StartChar: Thorn
Encoding: 222 222 300
Width: 264
Flags: W
LayerCount: 2
Fore
SplineSet
76 -6 m 0
 64 -6 64 22 64 29 c 0
 64 89 65 95 65 155 c 0
 65 209 63 224 63 278 c 0
 63 361 57 455 54 537 c 0
 52 579 47 623 47 667 c 1
 46 672 46 676 46 681 c 0
 46 693 48 742 47 747 c 0
 47 752 50 754 54 755 c 1
 61 755 71 751 71 752 c 1
 73 725 73 700 75 673 c 1
 75 672 l 1
 172 670 218 573 218 487 c 0
 218 429 190 329 143 292 c 0
 135 285 125 284 117 278 c 0
 107 271 106 265 93 262 c 1
 93 152 98 135 98 25 c 0
 98 9 96 -6 76 -6 c 0
79 643 m 1
 79 624 l 1
 79 617 l 1
 80 512 91 406 93 299 c 1
 108 300 115 312 125 322 c 0
 173 370 190 422 190 485 c 0
 190 579 168 592 97 643 c 1
 79 643 l 1
EndSplineSet
EndChar

StartChar: thorn
Encoding: 254 254 301
Width: 259
Flags: W
LayerCount: 2
Fore
SplineSet
51 10 m 1
 50 20 50 30 50 41 c 0
 50 111 60 182 60 252 c 0
 60 282 58 312 58 341 c 0
 58 421 64 500 64 580 c 0
 64 599 64 618 63 638 c 1
 59 643 l 1
 59 649 l 2
 59 663 62 675 80 675 c 0
 93 675 169 656 170 642 c 1
 170 642 169 640 169 639 c 0
 195 598 200 561 200 507 c 0
 200 466 197 424 184 388 c 1
 185 388 l 1
 178 372 165 356 156 341 c 1
 198 308 203 242 205 195 c 2
 206 169 l 1
 206 155 l 2
 206 71 164 -11 70 -11 c 0
 58 -11 51 -1 51 10 c 1
90 121 m 1
 85 112 84 93 84 73 c 0
 84 55 85 38 85 28 c 1
 137 28 175 88 175 136 c 0
 175 141 187 326 92 326 c 1
 89 281 87 236 87 190 c 0
 87 168 86 142 90 121 c 1
89 374 m 1
 90 370 92 365 93 361 c 1
 100 361 l 2
 158 361 166 441 166 494 c 0
 166 518 164 535 163 556 c 1
 161 558 l 1
 159 587 150 641 111 641 c 0
 92 641 89 559 89 510 c 0
 89 474 90 472 90 456 c 0
 90 433 89 410 89 386 c 2
 89 374 l 1
EndSplineSet
EndChar

StartChar: mu
Encoding: 181 181 312
AltUni2: 0003bc.ffffffff.0
Width: 363
Flags: W
LayerCount: 2
Fore
SplineSet
217 -19 m 0
 154 -19 123 25 105 77 c 1
 105 22 l 1
 107 17 107 12 107 7 c 0
 107 0 106 -7 106 -15 c 0
 106 -47 115 -74 115 -105 c 0
 115 -116 102 -121 93 -121 c 0
 84 -121 77 -112 77 -104 c 0
 77 -102 76 -100 76 -89 c 0
 76 -69 75 -49 75 -29 c 0
 75 6 73 36 73 71 c 0
 73 129 68 187 68 245 c 0
 67 399 48 553 48 707 c 0
 48 717 41 720 41 728 c 0
 41 737 48 748 58 748 c 0
 83 748 83 692 83 675 c 0
 83 563 92 449 92 337 c 1
 101 326 96 264 106 224 c 1
 105 218 104 212 104 206 c 0
 104 152 157 13 223 13 c 0
 275 13 270 58 274 96 c 1
 273 98 273 101 273 104 c 0
 273 115 276 126 276 137 c 2
 276 251 l 2
 276 271 269 291 269 311 c 0
 269 371 263 430 263 490 c 2
 263 503 l 1
 259 509 l 1
 262 528 263 547 263 566 c 0
 263 623 254 679 254 736 c 0
 254 747 267 752 276 752 c 1
 293 736 l 1
 290 728 l 1
 293 720 l 1
 293 700 286 680 286 660 c 0
 286 600 296 540 296 480 c 0
 296 422 301 364 301 306 c 1
 304 305 l 1
 303 298 303 291 303 284 c 0
 303 261 306 237 306 214 c 1
 309 211 l 1
 306 208 l 1
 306 187 307 166 307 145 c 0
 307 83 301 -19 217 -19 c 0
EndSplineSet
EndChar

StartChar: greater
Encoding: 62 62 313
Width: 278
Flags: W
LayerCount: 2
Fore
SplineSet
68 2 m 1
 62 2 57 0 53 0 c 0
 46 0 40 13 39 19 c 1
 48 26 l 1
 66 58 202 330 202 342 c 0
 202 425 92 587 77 684 c 1
 90 694 l 1
 110 690 122 627 128 609 c 0
 144 561 237 370 237 341 c 0
 237 316 206 292 197 268 c 0
 191 252 182 237 175 222 c 2
 89 44 l 2
 82 30 76 14 68 2 c 1
EndSplineSet
EndChar

StartChar: less
Encoding: 60 60 314
Width: 278
Flags: W
LayerCount: 2
Fore
SplineSet
210 2 m 1
 189 33 172 78 153 118 c 2
 103 222 l 2
 96 237 87 253 81 268 c 0
 72 292 41 315 41 341 c 0
 41 369 134 561 150 609 c 0
 156 626 169 691 188 694 c 1
 201 684 l 1
 186 587 76 425 76 342 c 0
 76 330 212 57 230 26 c 1
 239 19 l 1
 238 13 232 0 225 0 c 0
 221 0 217 2 212 2 c 2
 210 2 l 1
EndSplineSet
EndChar

StartChar: logicalnot
Encoding: 172 172 315
Width: 243
Flags: W
LayerCount: 2
Fore
SplineSet
215 342 m 1
 215 314 215 285 216 259 c 0
 216 247 207 243 203 243 c 0
 196 243 186 251 186 258 c 0
 186 292 183 324 183 355 c 0
 183 360 180 361 158 361 c 2
 142 361 l 2
 119 361 103 358 80 358 c 2
 1 358 l 2
 2 358 -3 368 -3 375 c 0
 -3 379 -1 382 4 382 c 0
 9 382 58 386 70 386 c 0
 104 386 129 389 163 389 c 0
 174 389 186 389 196 391 c 1
 205 390 219 385 219 374 c 0
 219 361 216 353 215 342 c 1
EndSplineSet
EndChar

StartChar: macron
Encoding: 175 175 316
Width: 303
Flags: W
LayerCount: 2
Fore
SplineSet
248 351 m 1
 247 344 219 343 184 343 c 2
 128 343 l 2
 88 343 55 343 55 359 c 1
 56 366 84 367 119 367 c 2
 176 367 l 2
 217 367 248 367 248 351 c 1
EndSplineSet
EndChar

StartChar: onesuperior
Encoding: 185 185 317
Width: 296
Flags: W
LayerCount: 2
Fore
SplineSet
96 18 m 1
 101 28 l 1
 110 28 119 27 128 27 c 0
 147 27 153 35 153 54 c 0
 153 245 136 436 124 627 c 0
 124 638 125 649 125 661 c 0
 125 693 119 724 79 724 c 0
 71 724 64 722 56 722 c 0
 49 722 39 723 39 733 c 0
 39 747 114 747 127 747 c 0
 136 747 143 740 143 731 c 1
 145 731 l 1
 143 721 142 710 142 700 c 0
 142 637 157 574 157 511 c 0
 157 399 174 288 174 176 c 0
 174 172 173 167 172 163 c 1
 176 148 178 70 178 50 c 0
 178 45 177 40 177 35 c 1
 181 32 l 1
 196 32 211 35 226 35 c 0
 235 35 257 35 257 21 c 0
 257 9 244 7 235 7 c 0
 194 7 153 3 112 3 c 0
 103 3 96 9 96 18 c 1
EndSplineSet
EndChar

StartChar: twosuperior
Encoding: 178 178 318
Width: 279
Flags: W
LayerCount: 2
Fore
SplineSet
38 12 m 1
 67 48 73 93 92 134 c 0
 164 291 206 436 206 610 c 0
 206 652 205 754 144 754 c 1
 146 755 l 1
 101 737 119 667 95 667 c 0
 82 667 82 677 82 687 c 0
 82 716 99 774 135 774 c 0
 194 774 228 721 230 667 c 1
 228 665 l 1
 228 641 231 616 231 592 c 0
 231 487 198 301 155 205 c 0
 140 171 76 47 75 20 c 1
 83 19 l 1
 119 26 163 28 203 30 c 1
 218 14 l 1
 209 1 l 1
 160 1 112 -8 63 -8 c 0
 51 -8 38 -1 38 12 c 1
EndSplineSet
EndChar

StartChar: threesuperior
Encoding: 179 179 319
Width: 288
Flags: W
LayerCount: 2
Fore
SplineSet
95 36 m 1
 103 41 l 1
 119 40 132 26 146 18 c 1
 214 18 222 93 222 145 c 0
 222 237 220 340 154 412 c 1
 151 412 148 411 144 411 c 0
 138 411 131 412 125 415 c 1
 125 419 l 1
 120 424 l 1
 121 436 184 480 184 552 c 0
 184 593 179 728 120 728 c 0
 71 728 78 671 54 671 c 0
 46 671 38 677 37 685 c 1
 55 722 78 752 123 752 c 0
 140 752 158 741 168 728 c 1
 171 727 l 1
 205 677 211 597 211 538 c 0
 211 518 203 499 193 482 c 1
 185 476 170 445 160 434 c 1
 229 407 227 308 241 248 c 0
 249 214 249 215 249 179 c 0
 249 115 246 -1 157 -1 c 0
 136 -1 95 10 95 36 c 1
EndSplineSet
EndChar

StartChar: foursuperior
Encoding: 400 8308 320
Width: 257
Flags: W
LayerCount: 2
Fore
SplineSet
147 30 m 1
 146 32 l 1
 149 44 150 56 150 68 c 0
 150 102 143 136 143 170 c 0
 143 185 145 200 145 215 c 0
 145 225 145 254 135 259 c 1
 115 259 96 253 76 253 c 0
 60 253 61 255 49 264 c 1
 49 267 l 2
 49 278 52 289 54 299 c 1
 45 319 l 1
 45 336 54 351 54 368 c 0
 54 433 64 499 64 564 c 2
 64 723 l 2
 64 731 60 740 60 748 c 0
 60 756 64 761 72 761 c 0
 80 761 90 757 90 747 c 0
 90 720 86 694 86 667 c 0
 86 656 87 644 89 633 c 1
 87 630 l 1
 88 621 89 612 89 602 c 0
 89 518 77 434 77 350 c 0
 77 340 84 331 84 321 c 0
 84 311 77 304 77 294 c 0
 77 287 77 275 87 275 c 0
 98 275 128 279 137 284 c 1
 137 356 133 428 130 500 c 0
 129 527 122 553 122 580 c 0
 122 589 134 592 141 592 c 1
 150 581 l 1
 150 534 156 487 156 440 c 0
 156 420 159 291 166 284 c 1
 178 284 190 288 203 288 c 0
 210 288 222 287 222 277 c 0
 222 251 166 281 166 243 c 0
 166 220 170 86 175 74 c 1
 174 70 174 64 174 57 c 0
 174 48 175 38 178 33 c 1
 175 21 l 1
 178 14 l 1
 178 0 l 1
 162 -12 l 1
 147 -6 l 1
 147 30 l 1
EndSplineSet
EndChar

StartChar: onehalf
Encoding: 189 189 321
Width: 848
Flags: W
LayerCount: 2
Fore
SplineSet
96 18 m 1
 101 28 l 1
 110 28 119 27 128 27 c 0
 147 27 153 35 153 54 c 0
 153 245 136 436 124 627 c 0
 124 638 125 649 125 661 c 0
 125 693 119 724 79 724 c 0
 71 724 64 722 56 722 c 0
 49 722 39 723 39 733 c 0
 39 747 114 747 127 747 c 0
 136 747 143 740 143 731 c 1
 145 731 l 1
 143 721 142 710 142 700 c 0
 142 637 157 574 157 511 c 0
 157 399 174 288 174 176 c 0
 174 172 173 167 172 163 c 1
 176 148 178 70 178 50 c 0
 178 45 177 40 177 35 c 1
 181 32 l 1
 196 32 211 35 226 35 c 0
 235 35 257 35 257 21 c 0
 257 9 244 7 235 7 c 0
 194 7 153 3 112 3 c 0
 103 3 96 9 96 18 c 1
530 735 m 0
 530 727 512 653 510 643 c 0
 474 477 435 313 397 146 c 2
 377 59 l 2
 372 38 369 -1 348 -3 c 1
 342 1 338 8 338 15 c 0
 338 63 360 131 373 189 c 0
 412 362 453 535 498 707 c 0
 500 713 507 748 515 748 c 0
 523 748 530 744 530 735 c 0
607 12 m 1
 636 48 642 93 661 134 c 0
 733 291 775 436 775 610 c 0
 775 652 774 754 713 754 c 1
 715 755 l 1
 670 737 688 667 664 667 c 0
 651 667 651 677 651 687 c 0
 651 716 668 774 704 774 c 0
 763 774 797 721 799 667 c 1
 797 665 l 1
 797 641 800 616 800 592 c 0
 800 487 767 301 724 205 c 0
 709 171 645 47 644 20 c 1
 652 19 l 1
 688 26 732 28 772 30 c 1
 787 14 l 1
 778 1 l 1
 729 1 681 -8 632 -8 c 0
 620 -8 607 -1 607 12 c 1
EndSplineSet
EndChar

StartChar: onequarter
Encoding: 188 188 322
Width: 826
Flags: W
LayerCount: 2
Fore
SplineSet
96 18 m 1
 101 28 l 1
 110 28 119 27 128 27 c 0
 147 27 153 35 153 54 c 0
 153 245 136 436 124 627 c 0
 124 638 125 649 125 661 c 0
 125 693 119 724 79 724 c 0
 71 724 64 722 56 722 c 0
 49 722 39 723 39 733 c 0
 39 747 114 747 127 747 c 0
 136 747 143 740 143 731 c 1
 145 731 l 1
 143 721 142 710 142 700 c 0
 142 637 157 574 157 511 c 0
 157 399 174 288 174 176 c 0
 174 172 173 167 172 163 c 1
 176 148 178 70 178 50 c 0
 178 45 177 40 177 35 c 1
 181 32 l 1
 196 32 211 35 226 35 c 0
 235 35 257 35 257 21 c 0
 257 9 244 7 235 7 c 0
 194 7 153 3 112 3 c 0
 103 3 96 9 96 18 c 1
530 735 m 0
 530 727 512 653 510 643 c 0
 474 477 435 313 397 146 c 2
 377 59 l 2
 372 38 369 -1 348 -3 c 1
 342 1 338 8 338 15 c 0
 338 63 360 131 373 189 c 0
 412 362 453 535 498 707 c 0
 500 713 507 748 515 748 c 0
 523 748 530 744 530 735 c 0
716 30 m 1
 715 32 l 1
 718 44 719 56 719 68 c 0
 719 102 712 136 712 170 c 0
 712 185 714 200 714 215 c 0
 714 225 714 254 704 259 c 1
 684 259 665 253 645 253 c 0
 629 253 630 255 618 264 c 1
 618 267 l 2
 618 278 621 289 623 299 c 1
 614 319 l 1
 614 336 623 351 623 368 c 0
 623 433 633 499 633 564 c 2
 633 723 l 2
 633 731 629 740 629 748 c 0
 629 756 633 761 641 761 c 0
 649 761 659 757 659 747 c 0
 659 720 655 694 655 667 c 0
 655 656 656 644 658 633 c 1
 656 630 l 1
 657 621 658 612 658 602 c 0
 658 518 646 434 646 350 c 0
 646 340 653 331 653 321 c 0
 653 311 646 304 646 294 c 0
 646 287 646 275 656 275 c 0
 667 275 697 279 706 284 c 1
 706 356 702 428 699 500 c 0
 698 527 691 553 691 580 c 0
 691 589 703 592 710 592 c 1
 719 581 l 1
 719 534 725 487 725 440 c 0
 725 420 728 291 735 284 c 1
 747 284 759 288 772 288 c 0
 779 288 791 287 791 277 c 0
 791 251 735 281 735 243 c 0
 735 220 739 86 744 74 c 1
 743 70 743 64 743 57 c 0
 743 48 744 38 747 33 c 1
 744 21 l 1
 747 14 l 1
 747 0 l 1
 731 -12 l 1
 716 -6 l 1
 716 30 l 1
EndSplineSet
EndChar

StartChar: threequarters
Encoding: 190 190 323
Width: 818
Flags: W
LayerCount: 2
Fore
SplineSet
95 36 m 1
 103 41 l 1
 119 40 132 26 146 18 c 1
 214 18 222 93 222 145 c 0
 222 237 220 340 154 412 c 1
 151 412 148 411 144 411 c 0
 138 411 131 412 125 415 c 1
 125 419 l 1
 120 424 l 1
 121 436 184 480 184 552 c 0
 184 593 179 728 120 728 c 0
 71 728 78 671 54 671 c 0
 46 671 38 677 37 685 c 1
 55 722 78 752 123 752 c 0
 140 752 158 741 168 728 c 1
 171 727 l 1
 205 677 211 597 211 538 c 0
 211 518 203 499 193 482 c 1
 185 476 170 445 160 434 c 1
 229 407 227 308 241 248 c 0
 249 214 249 215 249 179 c 0
 249 115 246 -1 157 -1 c 0
 136 -1 95 10 95 36 c 1
522 735 m 0
 522 727 504 653 502 643 c 0
 466 477 427 313 389 146 c 2
 369 59 l 2
 364 38 361 -1 340 -3 c 1
 334 1 330 8 330 15 c 0
 330 63 352 131 365 189 c 0
 404 362 445 535 490 707 c 0
 492 713 499 748 507 748 c 0
 515 748 522 744 522 735 c 0
708 30 m 1
 707 32 l 1
 710 44 711 56 711 68 c 0
 711 102 704 136 704 170 c 0
 704 185 706 200 706 215 c 0
 706 225 706 254 696 259 c 1
 676 259 657 253 637 253 c 0
 621 253 622 255 610 264 c 1
 610 267 l 2
 610 278 613 289 615 299 c 1
 606 319 l 1
 606 336 615 351 615 368 c 0
 615 433 625 499 625 564 c 2
 625 723 l 2
 625 731 621 740 621 748 c 0
 621 756 625 761 633 761 c 0
 641 761 651 757 651 747 c 0
 651 720 647 694 647 667 c 0
 647 656 648 644 650 633 c 1
 648 630 l 1
 649 621 650 612 650 602 c 0
 650 518 638 434 638 350 c 0
 638 340 645 331 645 321 c 0
 645 311 638 304 638 294 c 0
 638 287 638 275 648 275 c 0
 659 275 689 279 698 284 c 1
 698 356 694 428 691 500 c 0
 690 527 683 553 683 580 c 0
 683 589 695 592 702 592 c 1
 711 581 l 1
 711 534 717 487 717 440 c 0
 717 420 720 291 727 284 c 1
 739 284 751 288 764 288 c 0
 771 288 783 287 783 277 c 0
 783 251 727 281 727 243 c 0
 727 220 731 86 736 74 c 1
 735 70 735 64 735 57 c 0
 735 48 736 38 739 33 c 1
 736 21 l 1
 739 14 l 1
 739 0 l 1
 723 -12 l 1
 708 -6 l 1
 708 30 l 1
EndSplineSet
EndChar

StartChar: equal
Encoding: 61 61 324
Width: 303
Flags: W
LayerCount: 2
Fore
SplineSet
278 355 m 0
 278 352 228 352 173 352 c 2
 76 352 l 2
 66 352 55 358 55 369 c 0
 55 372 98 372 143 372 c 2
 256 372 l 2
 265 372 278 365 278 355 c 0
270 295 m 1
 270 296 131 297 77 297 c 0
 71 297 65 306 65 312 c 0
 65 314 66 316 69 316 c 0
 74 316 219 315 266 315 c 0
 271 315 276 307 276 301 c 0
 276 298 274 295 270 295 c 1
EndSplineSet
EndChar

StartChar: endash
Encoding: 401 8211 325
Width: 303
Flags: W
LayerCount: 2
Fore
SplineSet
308 355 m 1
 278 355 l 1
 278 352 228 352 173 352 c 2
 26 352 l 2
 16 352 5 358 5 369 c 0
 5 372 73 372 143 372 c 2
 286 372 l 2
 295 372 308 365 308 355 c 1
EndSplineSet
EndChar

StartChar: emdash
Encoding: 402 8212 326
Width: 303
Flags: W
LayerCount: 2
Fore
SplineSet
448 355 m 1
 418 355 l 1
 418 352 368 352 313 352 c 2
 26 352 l 2
 16 352 5 358 5 369 c 0
 5 372 143 372 283 372 c 2
 426 372 l 2
 435 372 448 365 448 355 c 1
EndSplineSet
EndChar

StartChar: divide
Encoding: 247 247 327
Width: 303
Flags: W
LayerCount: 2
Fore
SplineSet
228 354 m 0
 210 353 203 352 173 352 c 2
 66 352 l 2
 56 352 45 358 45 369 c 0
 45 372 93 372 143 372 c 2
 236 372 l 2
 241 372 247 367 247 362 c 0
 247 358 243 354 228 354 c 0
164 453 m 0
 152 453 139 465 139 477 c 0
 139 488 153 499 163 499 c 0
 179 499 186 488 186 473 c 0
 186 462 174 453 164 453 c 0
165 228 m 0
 175 228 190 235 190 247 c 0
 190 257 185 272 173 272 c 0
 161 272 140 268 140 252 c 0
 140 240 154 228 165 228 c 0
EndSplineSet
EndChar

StartChar: bar
Encoding: 124 124 328
Width: 251
Flags: W
LayerCount: 2
Fore
SplineSet
94 1 m 1
 91 -33 l 2
 91 -41 79 -43 74 -43 c 0
 62 -43 62 -41 62 -35 c 0
 62 54 74 141 74 230 c 0
 74 395 90 558 90 726 c 0
 90 739 90 758 110 758 c 0
 115 758 116 753 116 747 c 0
 116 561 97 368 97 181 c 0
 97 161 95 40 94 25 c 1
 94 1 l 1
EndSplineSet
EndChar

StartChar: brokenbar
Encoding: 166 166 329
Width: 251
Flags: W
LayerCount: 2
Fore
SplineSet
108 463 m 1
 105 429 l 2
 105 419 100 419 95 419 c 0
 83 419 83 421 83 427 c 0
 83 501 88 568 88 642 c 0
 88 659 90 720 90 726 c 0
 90 739 90 758 110 758 c 0
 115 758 116 753 116 747 c 0
 116 712 111 607 111 593 c 0
 111 578 109 497 108 487 c 1
 108 463 l 1
96 21 m 1
 93 -13 l 2
 93 -23 88 -23 83 -23 c 0
 71 -23 71 -21 71 -15 c 0
 71 53 76 112 76 180 c 0
 76 199 78 267 78 274 c 0
 78 287 78 306 98 306 c 0
 103 306 104 306 104 295 c 0
 104 258 99 146 99 131 c 0
 99 118 97 53 96 45 c 1
 96 21 l 1
EndSplineSet
EndChar

StartChar: foundryicon
Encoding: 403 -1 330
Width: 611
Flags: W
LayerCount: 2
Fore
SplineSet
295 183 m 2
 289 183 l 1
 264 162 219 127 194 108 c 0
 182 98 143 56 130 56 c 0
 121 56 113 58 113 69 c 0
 113 78 117 82 120 91 c 0
 132 145 158 204 173 252 c 1
 173 252 174 253 174 254 c 2
 173 255 l 1
 144 295 104 326 67 359 c 0
 51 373 9 386 9 410 c 0
 9 420 16 425 28 425 c 0
 33 425 96 414 136 414 c 1
 229 410 l 1
 275 525 l 1
 290 548 297 603 325 603 c 0
 334 603 349 589 349 580 c 0
 349 542 366 474 375 437 c 2
 380 414 l 1
 408 412 444 411 479 411 c 0
 513 411 542 414 572 414 c 0
 585 414 598 409 598 394 c 0
 598 387 560 366 551 359 c 0
 515 326 480 280 436 258 c 2
 430 255 l 1
 430 249 l 2
 430 223 444 190 450 168 c 1
 454 167 476 66 476 52 c 0
 476 42 470 35 460 35 c 0
 434 35 353 183 295 183 c 2
EndSplineSet
EndChar

StartChar: braceleft
Encoding: 123 123 331
Width: 340
Flags: W
LayerCount: 2
Fore
SplineSet
47 197 m 0
 47 250 51 285 51 315 c 0
 51 338 44 359 22 361 c 0
 19 362 18 366 18 371 c 0
 18 375 20 378 26 379 c 1
 44 379 51 402 51 426 c 0
 51 466 44 560 44 637 c 0
 44 714 71 754 108 754 c 0
 121 754 146 746 146 737 c 0
 146 726 137 726 130 726 c 0
 125 726 122 730 110 730 c 0
 80 730 74 681 74 633 c 2
 74 510 l 2
 74 484 77 457 77 433 c 0
 77 406 75 383 51 370 c 1
 75 358 77 335 77 308 c 0
 77 275 74 240 74 205 c 2
 74 96 l 2
 74 48 80 -1 110 -1 c 0
 130 -1 146 -1 146 -14 c 0
 146 -23 121 -25 108 -25 c 0
 71 -25 44 15 44 92 c 0
 44 132 47 157 47 197 c 0
EndSplineSet
EndChar

StartChar: braceright
Encoding: 125 125 332
Width: 340
Flags: W
LayerCount: 2
Fore
SplineSet
117 532 m 0
 117 479 113 444 113 414 c 0
 113 391 120 370 142 368 c 0
 145 367 146 363 146 358 c 0
 146 354 144 351 138 350 c 1
 120 350 113 327 113 303 c 0
 113 263 120 169 120 92 c 0
 120 15 93 -25 56 -25 c 0
 43 -25 18 -20 18 -11 c 0
 18 0 27 0 34 0 c 0
 39 0 42 -1 54 -1 c 0
 84 -1 90 48 90 96 c 2
 90 219 l 2
 90 245 87 272 87 296 c 0
 87 323 89 346 113 359 c 1
 89 371 87 394 87 421 c 0
 87 454 90 489 90 524 c 2
 90 633 l 2
 90 681 84 730 54 730 c 2
 39 730 l 2
 26 730 18 731 18 740 c 0
 18 749 43 754 56 754 c 0
 93 754 120 714 120 637 c 0
 120 597 117 572 117 532 c 0
EndSplineSet
EndChar

StartChar: degree
Encoding: 176 176 333
Width: 424
Flags: W
LayerCount: 2
Fore
SplineSet
147 548 m 0
 147 528 170 490 208 490 c 0
 269 490 280 545 280 573 c 0
 280 614 253 650 204 650 c 0
 166 650 147 589 147 548 c 0
125 553 m 0
 125 599 147 673 201 673 c 0
 256 673 299 632 299 581 c 0
 299 542 291 471 206 471 c 0
 158 471 125 525 125 553 c 0
EndSplineSet
EndChar

StartChar: bullet
Encoding: 404 8226 334
Width: 424
Flags: W
LayerCount: 2
Fore
SplineSet
147 337 m 0
 147 370 166 419 204 419 c 0
 253 419 280 393 280 362 c 0
 280 334 269 279 208 279 c 0
 170 279 147 317 147 337 c 0
EndSplineSet
EndChar

StartChar: asciitilde
Encoding: 126 126 335
Width: 319
Flags: W
LayerCount: 2
Fore
SplineSet
54 515 m 0
 54 553 73 586 115 586 c 1
 128 579 143 573 155 564 c 1
 163 548 180 525 200 525 c 0
 203 525 205 525 208 526 c 1
 215 524 l 1
 220 537 238 534 238 561 c 0
 238 568 233 573 232 580 c 1
 234 584 238 586 242 586 c 0
 259 586 265 566 265 552 c 0
 265 524 240 499 212 499 c 0
 173 499 146 531 123 558 c 1
 116 561 l 1
 98 561 l 1
 95 548 79 549 79 534 c 0
 79 527 82 520 84 513 c 1
 73 498 l 1
 65 498 54 506 54 515 c 0
EndSplineSet
EndChar

